<svg width="1808" height="324" viewBox="0 0 1808 324" fill="none" xmlns="http://www.w3.org/2000/svg">
<path d="M77.0439 102.655C77.0439 55.7354 115.08 17.6992 162 17.6992C208.92 17.6992 246.956 55.7354 246.956 102.655L246.956 221.344C246.956 268.264 208.92 306.3 162 306.3C115.08 306.3 77.0439 268.264 77.0439 221.344L77.0439 102.655Z" fill="url(#paint0_linear_164_2418)" fill-opacity="0.4"/>
<path d="M162 20.1982C207.54 20.1982 244.458 57.1153 244.458 102.655L244.458 221.345C244.458 266.885 207.54 303.802 162 303.802C116.46 303.802 79.5432 266.884 79.543 221.345L79.543 102.655C79.5431 57.1154 116.46 20.1983 162 20.1982Z" stroke="url(#paint1_linear_164_2418)" stroke-opacity="0.5" stroke-width="4.99742"/>
<path d="M59.9853 179.956C26.8563 146.827 26.8564 93.1143 59.9854 59.9853C93.1143 26.8564 146.827 26.8563 179.956 59.9853L264.015 144.044C297.144 177.173 297.143 230.885 264.014 264.014C230.885 297.143 177.173 297.143 144.044 264.014L59.9853 179.956Z" fill="url(#paint2_linear_164_2418)" fill-opacity="0.4"/>
<path d="M61.7524 61.7525C93.9056 29.5993 146.036 29.5993 178.189 61.7525L262.248 145.811C294.401 177.964 294.401 230.094 262.248 262.248C230.094 294.401 177.964 294.401 145.811 262.248L61.7524 178.189C29.5992 146.036 29.5992 93.9057 61.7524 61.7525Z" stroke="url(#paint3_linear_164_2418)" stroke-opacity="0.5" stroke-width="4.99742"/>
<path d="M102.655 246.749C55.8502 246.749 17.9072 208.806 17.9072 162.001C17.9072 115.196 55.8502 77.2531 102.655 77.2531L221.344 77.2531C268.149 77.2531 306.092 115.196 306.092 162.001C306.092 208.806 268.149 246.749 221.344 246.749L102.655 246.749Z" fill="url(#paint4_linear_164_2418)" fill-opacity="0.4"/>
<path d="M20.4062 162.001C20.4063 116.576 57.2302 79.752 102.655 79.752L221.344 79.752C266.769 79.752 303.594 116.576 303.594 162.001C303.594 207.426 266.769 244.25 221.344 244.25L102.655 244.25C57.2302 244.25 20.4062 207.426 20.4062 162.001Z" stroke="url(#paint5_linear_164_2418)" stroke-opacity="0.5" stroke-width="4.99742"/>
<path d="M144.044 59.9872C177.173 26.8583 230.886 26.8583 264.015 59.9873C297.144 93.1163 297.144 146.829 264.015 179.958L179.956 264.016C146.827 297.145 93.1145 297.145 59.9855 264.016C26.8565 230.887 26.8565 177.175 59.9855 144.046L144.044 59.9872Z" fill="url(#paint6_linear_164_2418)" fill-opacity="0.4"/>
<path d="M262.248 61.7543C294.401 93.9075 294.401 146.038 262.248 178.191L178.189 262.249C146.036 294.402 93.9055 294.403 61.7524 262.249C29.5993 230.096 29.5994 177.966 61.7524 145.813L145.811 61.7543C177.964 29.6012 230.094 29.6012 262.248 61.7543Z" stroke="url(#paint7_linear_164_2418)" stroke-opacity="0.5" stroke-width="4.99742"/>
<g clip-path="url(#clip0_164_2418)">
<path d="M404.413 106.261C404.413 85.3765 407.368 69.455 413.249 58.4676C419.13 47.4803 433.646 42.001 456.797 42.001C458.948 42.001 461.358 42.0584 464.026 42.1731C466.694 42.2879 469.419 42.546 472.23 42.9764C473.292 42.9764 474.325 43.0337 475.271 43.1485C476.247 43.2632 477.136 43.3206 477.997 43.3206V79.9259C474.984 80.5857 472.259 81.016 469.792 81.2168C467.325 81.4463 465.231 81.6472 463.538 81.8767H462.563C457.628 82.307 454.301 83.2824 452.608 84.7741C450.887 86.2659 450.026 90.1387 450.026 96.3352V106.29H550.261V138.735H450.055V277.526H404.442V138.735H380V106.29H404.413V106.261Z" fill="black"/>
<path d="M550.293 106.263V277.527H504.68V106.263H550.293Z" fill="black"/>
<path d="M639.622 106.263V131.651C640.683 130.36 641.774 128.983 642.835 127.463C643.896 125.971 644.987 124.565 646.048 123.274C652.474 115.557 659.158 110.107 666.129 106.894C673.1 103.681 681.506 102.074 691.346 102.074C703.337 102.074 714.324 105.115 724.279 111.226C734.234 117.336 740.918 125.082 744.36 134.52C746.081 139.024 747.258 144.044 747.889 149.609C748.52 155.175 748.864 162.347 748.864 171.125V277.47H703.251V174.654C703.251 163.293 701.013 154.831 696.509 149.265C692.005 143.7 685.034 140.917 675.625 140.917C661.281 140.917 651.728 145.851 647.023 155.691C642.319 165.56 639.851 176.375 639.622 188.137V277.47H594.009V106.263H639.622Z" fill="black"/>
<path d="M797.377 116.533C809.598 106.894 827.699 102.074 851.682 102.074C869.239 102.074 883.698 104.312 895.058 108.816C906.418 113.32 914.451 120.176 919.155 129.385C919.155 129.614 919.27 129.815 919.471 130.016C921.623 134.09 923.057 138.593 923.803 143.499C924.549 148.433 924.922 155.72 924.922 165.359V251.135C924.922 257.36 925.61 262.552 927.016 266.712C928.393 270.9 930.487 274.486 933.27 277.47H886.997C885.935 275.978 884.96 274.572 884.099 273.281C883.239 271.991 882.607 270.7 882.177 269.437C881.317 267.515 880.685 265.421 880.255 263.183C879.825 260.946 879.624 258.192 879.624 254.979C876.612 258.192 873.772 261.147 871.104 263.815C868.436 266.483 865.797 268.806 863.243 270.728C857.448 275.003 851.453 277.958 845.256 279.564C839.031 281.171 831.544 281.974 822.765 281.974C807.762 281.974 795.569 277.326 786.131 268.003C776.693 258.68 771.988 246.43 771.988 231.226C771.988 216.021 775.689 204.718 783.062 196.055C790.463 187.391 802.081 181.338 817.917 177.895C826.064 176.174 835.158 174.568 845.228 173.076C855.297 171.584 866.428 170.293 878.649 169.232C878.649 158.962 877.214 151.187 874.317 145.937C871.419 140.688 863.989 138.077 851.998 138.077C841.929 138.077 834.441 139.856 829.507 143.384C824.573 146.913 821.36 152.966 819.868 161.543L777.468 161.228C778.529 141.089 785.185 126.2 797.377 116.561V116.533ZM879.624 197.518C875.55 198.378 871.964 199.009 868.866 199.44C865.768 199.87 863.014 200.186 860.661 200.415C859.17 200.845 857.764 201.161 856.473 201.391C855.182 201.591 853.891 201.821 852.629 202.022C851.568 202.251 850.535 202.452 849.588 202.653C848.613 202.882 847.609 203.083 846.547 203.284C835.847 205.435 828.331 208.276 824.056 211.804C819.782 215.333 817.63 220.439 817.63 227.066C817.63 232.861 819.839 237.508 824.228 241.037C828.618 244.565 834.355 246.344 841.412 246.344C857.248 246.344 867.604 241.639 872.423 232.201C877.243 222.791 879.653 211.316 879.653 197.833V197.518H879.624Z" fill="black"/>
<path d="M1004.93 43.292V277.526H959.314V43.292H1004.93Z" fill="black"/>
<path d="M1107.12 106.261V61.5947H1152.73V106.261H1180.67V138.076H1152.73V229.962C1152.73 237.449 1153.96 242.125 1156.43 243.933C1158.9 245.74 1164.95 246.658 1174.59 246.658H1180.7V280.71C1178.98 280.911 1177.26 281.083 1175.56 281.198C1173.84 281.313 1172.04 281.37 1170.11 281.37C1167.33 281.571 1164.55 281.743 1161.77 281.858C1158.98 281.972 1156.4 282.03 1154.05 282.03C1133.91 282.03 1121.06 277.526 1115.49 268.547C1109.93 259.539 1107.14 245.941 1107.14 227.753V138.104H1084.97V106.29H1107.14L1107.12 106.261Z" fill="black"/>
<path d="M1223.09 116.533C1235.32 106.894 1253.42 102.074 1277.4 102.074C1294.96 102.074 1309.42 104.312 1320.78 108.816C1332.14 113.32 1340.17 120.176 1344.87 129.385C1344.87 129.614 1344.99 129.815 1345.19 130.016C1347.34 134.09 1348.77 138.593 1349.52 143.499C1350.27 148.433 1350.64 155.72 1350.64 165.359V251.135C1350.64 257.36 1351.33 262.552 1352.73 266.712C1354.11 270.9 1356.2 274.486 1358.99 277.47H1312.71C1311.65 275.978 1310.68 274.572 1309.82 273.281C1308.96 271.991 1308.33 270.7 1307.89 269.437C1307.03 267.515 1306.4 265.421 1305.97 263.183C1305.54 260.946 1305.34 258.192 1305.34 254.979C1302.33 258.192 1299.49 261.147 1296.82 263.815C1294.15 266.483 1291.51 268.806 1288.96 270.728C1283.17 275.003 1277.17 277.958 1270.97 279.564C1264.75 281.171 1257.26 281.974 1248.48 281.974C1233.48 281.974 1221.29 277.326 1211.85 268.003C1202.41 258.68 1197.71 246.43 1197.71 231.226C1197.71 216.021 1201.41 204.718 1208.78 196.055C1216.18 187.391 1227.8 181.338 1243.63 177.895C1251.78 176.174 1260.88 174.568 1270.95 173.076C1281.01 171.584 1292.15 170.293 1304.37 169.232C1304.37 158.962 1302.93 151.187 1300.03 145.937C1297.14 140.688 1289.71 138.077 1277.72 138.077C1267.65 138.077 1260.16 139.856 1255.22 143.384C1250.29 146.913 1247.08 152.966 1245.59 161.543L1203.19 161.228C1204.25 141.089 1210.9 126.2 1223.09 116.561V116.533ZM1305.34 197.518C1301.27 198.378 1297.68 199.009 1294.58 199.44C1291.49 199.87 1288.73 200.186 1286.38 200.415C1284.89 200.845 1283.48 201.161 1282.19 201.391C1280.9 201.591 1279.61 201.821 1278.35 202.022C1277.29 202.251 1276.25 202.452 1275.31 202.653C1274.33 202.882 1273.33 203.083 1272.26 203.284C1261.56 205.435 1254.05 208.276 1249.77 211.804C1245.5 215.333 1243.35 220.439 1243.35 227.066C1243.35 232.861 1245.56 237.508 1249.95 241.037C1254.34 244.565 1260.07 246.344 1267.13 246.344C1282.97 246.344 1293.32 241.639 1298.14 232.201C1302.96 222.791 1305.37 211.316 1305.37 197.833V197.518H1305.34Z" fill="black"/>
<path d="M1421.01 43.292V132.281C1422.51 130.359 1424 128.494 1425.52 126.658C1427.01 124.851 1428.42 123.187 1429.71 121.666C1436.13 114.609 1442.76 109.56 1449.62 106.577C1456.47 103.593 1464.27 102.073 1473.08 102.073C1493.42 102.073 1509.66 109.991 1521.76 125.855C1533.87 141.719 1539.92 162.804 1539.92 189.139C1539.92 217.196 1533.61 239.687 1520.96 256.613C1508.31 273.538 1491.5 282.001 1470.53 282.001C1459.4 282.001 1450.07 279.477 1442.59 274.456C1435.1 269.436 1427.9 260.801 1421.07 248.58V277.497H1375.46V43.292H1421.07H1421.01ZM1493.31 191.721C1493.31 175.456 1490.27 162.919 1484.16 154.141C1478.04 145.362 1469.32 140.973 1457.96 140.973C1446.6 140.973 1437.82 145.362 1431.63 154.141C1425.4 162.919 1422.3 175.57 1422.3 192.066C1422.3 208.561 1425.4 221.241 1431.63 230.134C1437.82 239.027 1446.63 243.474 1457.96 243.474C1469.29 243.474 1478.04 239.027 1484.16 230.134C1490.27 221.241 1493.31 208.561 1493.31 192.066V191.75V191.721Z" fill="black"/>
<path d="M1617.32 43.292V277.526H1571.71V43.292H1617.32Z" fill="black"/>
<path d="M1706.34 235.414C1711.91 242.7 1719.94 246.344 1730.44 246.344C1735.37 246.344 1739.53 245.54 1742.97 243.934C1746.39 242.327 1749.6 239.487 1752.61 235.414C1753.47 234.352 1754.28 233.205 1755.02 232.028C1755.77 230.852 1756.57 229.504 1757.43 228.012L1804.02 227.697C1796.74 246.544 1787.1 260.314 1775.1 268.978C1763.11 277.642 1747.79 282.002 1729.15 282.002C1704.07 282.002 1684.48 274.142 1670.34 258.392C1656.19 242.643 1649.14 220.84 1649.14 193.013C1649.14 165.186 1656.14 141.978 1670.19 126.028C1684.22 110.078 1703.76 102.103 1728.83 102.103C1753.9 102.103 1773.87 109.848 1787.47 125.311C1801.07 140.802 1807.87 163.15 1807.87 192.411V197.058C1807.87 198.034 1807.75 199.239 1807.55 200.73H1696.39C1697.45 216.595 1700.78 228.156 1706.34 235.442V235.414ZM1759.99 171.153C1758.92 160.654 1755.65 152.507 1750.18 146.74C1744.72 140.945 1737.38 138.077 1728.17 138.077C1718.96 138.077 1711.62 140.945 1706.17 146.683C1700.72 152.42 1697.45 160.568 1696.36 171.182H1759.99V171.153Z" fill="black"/>
<path d="M550.293 43.292H504.68V80.3563H550.293V43.292Z" fill="black"/>
</g>
<defs>
<linearGradient id="paint0_linear_164_2418" x1="162" y1="17.6992" x2="162" y2="306.3" gradientUnits="userSpaceOnUse">
<stop stop-color="#00FF73"/>
<stop offset="1" stop-color="#00188D"/>
</linearGradient>
<linearGradient id="paint1_linear_164_2418" x1="162" y1="17.6992" x2="162" y2="306.3" gradientUnits="userSpaceOnUse">
<stop stop-color="#DDFFD4"/>
<stop offset="1" stop-color="#38D7FF"/>
</linearGradient>
<linearGradient id="paint2_linear_164_2418" x1="59.9854" y1="59.9854" x2="264.014" y2="264.014" gradientUnits="userSpaceOnUse">
<stop stop-color="#00FF73"/>
<stop offset="1" stop-color="#00188D"/>
</linearGradient>
<linearGradient id="paint3_linear_164_2418" x1="59.9854" y1="59.9854" x2="264.014" y2="264.014" gradientUnits="userSpaceOnUse">
<stop stop-color="#DDFFD4"/>
<stop offset="1" stop-color="#38D7FF"/>
</linearGradient>
<linearGradient id="paint4_linear_164_2418" x1="17.9072" y1="162.001" x2="306.092" y2="162.001" gradientUnits="userSpaceOnUse">
<stop stop-color="#00FF73"/>
<stop offset="1" stop-color="#00188D"/>
</linearGradient>
<linearGradient id="paint5_linear_164_2418" x1="17.9072" y1="162.001" x2="306.092" y2="162.001" gradientUnits="userSpaceOnUse">
<stop stop-color="#DDFFD4"/>
<stop offset="1" stop-color="#38D7FF"/>
</linearGradient>
<linearGradient id="paint6_linear_164_2418" x1="264.015" y1="59.9873" x2="59.9855" y2="264.016" gradientUnits="userSpaceOnUse">
<stop stop-color="#00FF73"/>
<stop offset="1" stop-color="#00188D"/>
</linearGradient>
<linearGradient id="paint7_linear_164_2418" x1="264.015" y1="59.9873" x2="59.9855" y2="264.016" gradientUnits="userSpaceOnUse">
<stop stop-color="#DDFFD4"/>
<stop offset="1" stop-color="#38D7FF"/>
</linearGradient>
<clipPath id="clip0_164_2418">
<rect width="1427.87" height="240" fill="white" transform="translate(380 42.001)"/>
</clipPath>
</defs>
</svg>
