<?xml version="1.0" encoding="UTF-8"?>
<svg id="Layer_2" data-name="Layer 2" xmlns="http://www.w3.org/2000/svg" viewBox="0 0 139.7 139.7">
  <defs>
    <style>
      .cls-1 {
        fill: #a2f69a;
      }

      .cls-2 {
        fill: #fff;
        isolation: isolate;
        opacity: .95;
      }
    </style>
  </defs>
  <g id="Layer_2-2" data-name="Layer 2">
    <g>
      <rect width="139.7" height="139.7" rx="28.98" ry="28.98"/>
      <path class="cls-2" d="M104.98,81.89l-16.18,7.95-3.96,1.94c-.7.34-1.54.06-1.88-.63l-6.92-14.06-8.56-17.4c-.34-.7-.05-1.54.63-1.88l20.15-9.91c.7-.34,1.53-.05,1.87.64l15.48,31.47c.34.7.05,1.54-.64,1.88h0Z"/>
      <path class="cls-2" d="M84.23,97.13c-2.52,0-4.8-1.41-5.91-3.68l-13.14-26.71c-.37-.01-.76.12-1.05.42l-15.87,15.87c-.55.54-.55,1.43,0,1.98l24.79,24.79c.55.55,1.44.55,1.98,0l14.54-14.54-2.43,1.19c-.9.45-1.91.68-2.92.68h0Z"/>
      <path class="cls-1" d="M117.04,35.08c-19.96-19.01-53.79-16.52-76.14,5.83-22.34,22.34-24.84,56.18-5.82,76.14.42.44,1.11.44,1.54.01l6.83-6.82c.4-.41.43-1.07.03-1.5-6.27-6.71-9.34-16.02-8.66-26.37.77-11.77,6.19-23.23,15.26-32.29,9.07-9.07,20.53-14.49,32.3-15.26,10.33-.69,19.66,2.39,26.37,8.66.42.39,1.08.37,1.49-.04l6.82-6.82c.43-.43.43-1.12-.01-1.55h-.01Z"/>
    </g>
  </g>
</svg>