<svg preserveAspectRatio="none" width="100%" height="100%" overflow="visible" style="display: block;" viewBox="0 0 312 9.01817" fill="none" xmlns="http://www.w3.org/2000/svg">
<path id="Vector 3" d="M309.869 9.01299C310.398 9.05114 310.919 8.87717 311.318 8.52737C311.717 8.17769 311.961 7.68082 311.996 7.14806C312.031 6.61531 311.854 6.09088 311.504 5.69214C311.154 5.29328 310.66 5.05278 310.131 5.02156C310.131 5.02156 310.131 5.02156 310.131 5.02156C305.093 4.72475 299.833 4.43561 294.66 4.16874C201.58 -0.00669241 108.251 -3.03276 15.3901 5.18814C10.2077 5.72352 5.02454 6.33132 0 7.01727C5.03312 6.39744 10.2224 5.85606 15.4094 5.38721C108.315 -1.63308 201.538 2.59565 294.439 7.96235C299.6 8.2953 304.847 8.65042 309.869 9.01299Z" fill="var(--stroke-0, #2FE37A)"/>
</svg>
