<svg width="625" height="240" viewBox="0 0 625 240" fill="none" xmlns="http://www.w3.org/2000/svg">
<path d="M24.4131 64.2601C24.4131 43.3756 27.3679 27.454 33.2489 16.4666C39.1298 5.47932 53.6457 0 76.7966 0C78.9481 0 81.3579 0.0573751 84.0258 0.172125C86.6938 0.286875 89.4191 0.545063 92.2305 0.975377C93.2919 0.975377 94.3246 1.03275 95.2713 1.1475C96.2467 1.26225 97.136 1.31963 97.9966 1.31963V37.9249C94.9845 38.5847 92.2591 39.0151 89.792 39.2159C87.3249 39.4454 85.2307 39.6462 83.5381 39.8757H82.5628C77.6285 40.306 74.3007 41.2814 72.6082 42.7731C70.8869 44.2649 70.0263 48.1377 70.0263 54.3342V64.2888H170.261V96.7344H70.055V235.525H24.4418V96.7344H0V64.2888H24.4131V64.2601Z" fill="#01162C"/>
<path d="M170.293 64.2617V235.526H124.68V64.2617H170.293Z" fill="#01162C"/>
<path d="M259.622 64.2616V89.6501C260.683 88.3592 261.774 86.9822 262.835 85.4617C263.896 83.97 264.987 82.5643 266.048 81.2733C272.474 73.5564 279.158 68.1058 286.129 64.8928C293.1 61.6797 301.506 60.0732 311.346 60.0732C323.337 60.0732 334.324 63.1141 344.279 69.2246C354.234 75.335 360.918 83.0806 364.36 92.5189C366.081 97.0228 367.258 102.043 367.889 107.608C368.52 113.174 368.864 120.346 368.864 129.124V235.469H323.251V132.653C323.251 121.292 321.013 112.83 316.509 107.264C312.005 101.699 305.034 98.9162 295.625 98.9162C281.281 98.9162 271.728 103.85 267.023 113.69C262.319 123.559 259.851 134.374 259.622 146.136V235.469H214.009V64.2616H259.622Z" fill="#01162C"/>
<path d="M417.377 74.5318C429.598 64.8927 447.699 60.0732 471.682 60.0732C489.239 60.0732 503.698 62.3109 515.058 66.8148C526.418 71.3188 534.451 78.1751 539.155 87.3838C539.155 87.6133 539.27 87.8141 539.471 88.0149C541.623 92.0885 543.057 96.5925 543.803 101.498C544.549 106.432 544.922 113.719 544.922 123.358V209.134C544.922 215.359 545.61 220.551 547.016 224.711C548.393 228.899 550.487 232.485 553.27 235.469H506.997C505.935 233.977 504.96 232.571 504.099 231.281C503.239 229.99 502.607 228.699 502.177 227.436C501.317 225.514 500.685 223.42 500.255 221.182C499.825 218.945 499.624 216.191 499.624 212.978C496.612 216.191 493.772 219.146 491.104 221.814C488.436 224.482 485.797 226.805 483.243 228.727C477.448 233.002 471.453 235.957 465.256 237.563C459.031 239.17 451.544 239.973 442.765 239.973C427.762 239.973 415.569 235.325 406.131 226.002C396.693 216.679 391.988 204.429 391.988 189.225C391.988 174.02 395.689 162.717 403.062 154.054C410.463 145.39 422.081 139.337 437.917 135.894C446.064 134.173 455.158 132.567 465.228 131.075C475.297 129.583 486.428 128.292 498.649 127.231C498.649 116.961 497.214 109.186 494.317 103.936C491.419 98.6867 483.989 96.0761 471.998 96.0761C461.929 96.0761 454.441 97.8547 449.507 101.383C444.573 104.912 441.36 110.965 439.868 119.543L397.468 119.227C398.529 99.0883 405.185 84.1995 417.377 74.5604V74.5318ZM499.624 155.517C495.55 156.377 491.964 157.008 488.866 157.439C485.768 157.869 483.014 158.185 480.661 158.414C479.17 158.844 477.764 159.16 476.473 159.39C475.182 159.59 473.891 159.82 472.629 160.021C471.568 160.25 470.535 160.451 469.588 160.652C468.613 160.881 467.609 161.082 466.547 161.283C455.847 163.434 448.331 166.275 444.056 169.803C439.782 173.332 437.63 178.438 437.63 185.065C437.63 190.86 439.839 195.507 444.228 199.036C448.618 202.564 454.355 204.343 461.412 204.343C477.248 204.343 487.604 199.638 492.423 190.2C497.243 180.79 499.653 169.315 499.653 155.832V155.517H499.624Z" fill="#01162C"/>
<path d="M624.928 1.29102V235.525H579.314V1.29102H624.928Z" fill="#01162C"/>
<path d="M170.293 1.29102H124.68V38.3553H170.293V1.29102Z" fill="#01162C"/>
</svg>
