<svg width="723" height="239" viewBox="0 0 723 239" fill="none" xmlns="http://www.w3.org/2000/svg">
<path d="M22.1468 62.9692V18.3027H67.7599V62.9692H95.7016V94.7837H67.7599V186.67C67.7599 194.157 68.9935 198.833 71.4606 200.641C73.9278 202.448 79.9809 203.366 89.6199 203.366H95.7303V237.418C94.009 237.619 92.2878 237.791 90.5953 237.906C88.874 238.021 87.0667 238.078 85.1447 238.078C82.362 238.279 79.5793 238.451 76.7966 238.566C74.0139 238.68 71.432 238.738 69.0796 238.738C48.941 238.738 36.0889 234.234 30.5235 225.255C24.9582 216.247 22.1755 202.649 22.1755 184.461V94.8124H0V62.9979H22.1755L22.1468 62.9692Z" fill="#01162C"/>
<path d="M138.126 73.2407C150.347 63.6017 168.449 58.7822 192.431 58.7822C209.988 58.7822 224.447 61.0199 235.807 65.5238C247.167 70.0277 255.2 76.8841 259.904 86.0928C259.904 86.3223 260.019 86.5231 260.22 86.7239C262.372 90.7975 263.806 95.3015 264.552 100.207C265.298 105.141 265.671 112.428 265.671 122.067V207.843C265.671 214.068 266.359 219.26 267.765 223.42C269.142 227.608 271.236 231.194 274.019 234.178H227.746C226.684 232.686 225.709 231.28 224.848 229.989C223.988 228.699 223.356 227.408 222.926 226.145C222.066 224.223 221.434 222.129 221.004 219.891C220.574 217.654 220.373 214.9 220.373 211.687C217.361 214.9 214.521 217.855 211.853 220.523C209.185 223.191 206.546 225.514 203.992 227.436C198.197 231.711 192.202 234.666 186.005 236.272C179.78 237.879 172.293 238.682 163.514 238.682C148.511 238.682 136.318 234.034 126.88 224.711C117.442 215.388 112.737 203.138 112.737 187.934C112.737 172.729 116.438 161.426 123.811 152.763C131.212 144.099 142.83 138.046 158.666 134.603C166.813 132.882 175.907 131.276 185.977 129.784C196.046 128.292 207.177 127.001 219.398 125.94C219.398 115.67 217.963 107.895 215.066 102.645C212.168 97.3957 204.738 94.7851 192.747 94.7851C182.677 94.7851 175.19 96.5637 170.256 100.092C165.322 103.621 162.109 109.674 160.617 118.251L118.217 117.936C119.278 97.7973 125.934 82.9084 138.126 73.2694V73.2407ZM220.373 154.226C216.299 155.086 212.713 155.717 209.615 156.148C206.517 156.578 203.763 156.894 201.411 157.123C199.919 157.553 198.513 157.869 197.222 158.099C195.931 158.299 194.64 158.529 193.378 158.73C192.317 158.959 191.284 159.16 190.337 159.361C189.362 159.59 188.358 159.791 187.296 159.992C176.596 162.143 169.08 164.984 164.805 168.512C160.531 172.041 158.379 177.147 158.379 183.774C158.379 189.569 160.588 194.216 164.977 197.745C169.366 201.273 175.104 203.052 182.161 203.052C197.997 203.052 208.353 198.347 213.172 188.909C217.992 179.499 220.402 168.024 220.402 154.541V154.226H220.373Z" fill="#01162C"/>
<path d="M336.045 0V88.9888C337.537 87.0667 339.029 85.202 340.549 83.366C342.041 81.5587 343.446 79.8948 344.737 78.3744C351.163 71.3172 357.79 66.2682 364.647 63.2847C371.503 60.3012 379.306 58.7808 388.113 58.7808C408.452 58.7808 424.69 66.6985 436.796 82.5627C448.902 98.427 454.955 119.512 454.955 145.847C454.955 173.904 448.644 196.395 435.992 213.321C423.341 230.246 406.53 238.709 385.56 238.709C374.429 238.709 365.106 236.185 357.618 231.164C350.131 226.144 342.93 217.509 336.102 205.288V234.205H290.489V0H336.102H336.045ZM408.338 148.429C408.338 132.164 405.297 119.627 399.186 110.849C393.076 102.07 384.355 97.6811 372.995 97.6811C361.634 97.6811 352.856 102.07 346.659 110.849C340.434 119.627 337.336 132.278 337.336 148.774C337.336 165.269 340.434 177.949 346.659 186.842C352.856 195.735 361.663 200.182 372.995 200.182C384.326 200.182 393.076 195.735 399.186 186.842C405.297 177.949 408.338 165.269 408.338 148.774V148.458V148.429Z" fill="#01162C"/>
<path d="M532.355 0V234.234H486.742V0H532.355Z" fill="#01162C"/>
<path d="M621.372 192.122C626.937 199.408 634.97 203.052 645.469 203.052C650.404 203.052 654.563 202.248 658.006 200.642C661.42 199.035 664.633 196.195 667.645 192.122C668.506 191.06 669.309 189.913 670.055 188.736C670.801 187.56 671.604 186.212 672.464 184.72L719.053 184.405C711.766 203.252 702.127 217.022 690.136 225.686C678.145 234.35 662.825 238.71 644.179 238.71C619.106 238.71 599.512 230.85 585.369 215.1C571.226 199.351 564.169 177.548 564.169 149.721C564.169 121.894 571.169 98.6862 585.226 82.736C599.254 66.7857 618.79 58.8105 643.863 58.8105C668.936 58.8105 688.902 66.5562 702.5 82.0188C716.098 97.51 722.897 119.858 722.897 149.119V153.766C722.897 154.742 722.782 155.947 722.582 157.438H611.417C612.479 173.303 615.807 184.864 621.372 192.15V192.122ZM675.018 127.861C673.956 117.362 670.686 109.215 665.206 103.448C659.756 97.6535 652.412 94.7847 643.203 94.7847C633.994 94.7847 626.65 97.6535 621.2 103.391C615.749 109.128 612.479 117.276 611.389 127.89H675.018V127.861Z" fill="#01162C"/>
</svg>
