<svg width="119" height="20" viewBox="0 0 119 20" fill="none" xmlns="http://www.w3.org/2000/svg">
<g clip-path="url(#clip0_39_3258)">
<path d="M2.03443 5.35501C2.03443 3.61463 2.28066 2.28783 2.77074 1.37222C3.26082 0.45661 4.47048 0 6.39971 0C6.57901 0 6.77982 0.00478126 7.00215 0.0143438C7.22448 0.0239063 7.45159 0.0454219 7.68587 0.0812814C7.77433 0.0812814 7.86039 0.0860626 7.93928 0.0956252C8.02056 0.105188 8.09467 0.109969 8.16639 0.109969V3.16041C7.91537 3.2154 7.68826 3.25126 7.48267 3.26799C7.27707 3.28711 7.10256 3.30385 6.96151 3.32297H6.88023C6.46904 3.35883 6.19173 3.44011 6.05068 3.56443C5.90724 3.68874 5.83553 4.01148 5.83553 4.52785V5.3574H14.1884V8.0612H5.83792V19.6271H2.03682V8.0612H0V5.3574H2.03443V5.35501Z" fill="#020521"/>
<path d="M14.1917 5.35547V19.6275H10.3906V5.35547H14.1917Z" fill="#020521"/>
<path d="M21.6331 5.35587V7.47157C21.7216 7.364 21.8124 7.24925 21.9009 7.12254C21.9893 6.99823 22.0802 6.88109 22.1686 6.77351C22.7041 6.13043 23.2611 5.67621 23.8421 5.40846C24.423 5.14071 25.1234 5.00684 25.9434 5.00684C26.9427 5.00684 27.8583 5.26024 28.6879 5.76945C29.5174 6.27865 30.0744 6.92412 30.3613 7.71064C30.5048 8.08597 30.6028 8.50432 30.6554 8.96811C30.708 9.43189 30.7366 10.0295 30.7366 10.7611V19.6231H26.9355V11.0551C26.9355 10.1084 26.7491 9.4032 26.3737 8.93942C25.9984 8.47564 25.4175 8.24375 24.6334 8.24375C23.4381 8.24375 22.642 8.65494 22.2499 9.47492C21.8579 10.2973 21.6523 11.1986 21.6331 12.1787V19.6231H17.832V5.35587H21.6331Z" fill="#020521"/>
<path d="M34.7817 6.21171C35.8001 5.40846 37.3086 5.00684 39.3072 5.00684C40.7702 5.00684 41.9751 5.19331 42.9218 5.56863C43.8685 5.94396 44.5379 6.51532 44.9299 7.28271C44.9299 7.30184 44.9395 7.31857 44.9562 7.33531C45.1355 7.67478 45.2551 8.05011 45.3172 8.4589C45.3794 8.87009 45.4105 9.47731 45.4105 10.2806V17.4285C45.4105 17.9473 45.4678 18.38 45.585 18.7267C45.6997 19.0757 45.8742 19.3745 46.1061 19.6231H42.25C42.1616 19.4988 42.0803 19.3817 42.0086 19.2741C41.9369 19.1665 41.8843 19.059 41.8484 18.9538C41.7767 18.7936 41.7241 18.6191 41.6882 18.4326C41.6524 18.2461 41.6357 18.0166 41.6357 17.7489C41.3846 18.0166 41.148 18.2629 40.9256 18.4852C40.7033 18.7075 40.4834 18.9012 40.2706 19.0613C39.7877 19.4175 39.2881 19.6638 38.7717 19.7977C38.2529 19.9315 37.629 19.9985 36.8974 19.9985C35.6471 19.9985 34.6311 19.6112 33.8446 18.8342C33.0581 18.0573 32.666 17.0365 32.666 15.7694C32.666 14.5024 32.9744 13.5605 33.5888 12.8385C34.2056 12.1166 35.1738 11.6121 36.4934 11.3253C37.1723 11.1818 37.9302 11.048 38.7693 10.9236C39.6084 10.7993 40.536 10.6918 41.5544 10.6033C41.5544 9.74745 41.4348 9.09959 41.1934 8.66211C40.9519 8.22462 40.3328 8.00708 39.3335 8.00708C38.4944 8.00708 37.8704 8.15529 37.4592 8.44934C37.048 8.74339 36.7803 9.24781 36.656 9.96261L33.1226 9.93631C33.2111 8.25809 33.7657 7.01735 34.7817 6.2141V6.21171ZM41.6357 12.9605C41.2962 13.0322 40.9974 13.0848 40.7392 13.1206C40.481 13.1565 40.2515 13.1828 40.0554 13.2019C39.9311 13.2378 39.814 13.2641 39.7064 13.2832C39.5988 13.2999 39.4913 13.3191 39.3861 13.3358C39.2976 13.3549 39.2116 13.3716 39.1327 13.3884C39.0514 13.4075 38.9677 13.4242 38.8793 13.441C37.9876 13.6203 37.3612 13.8569 37.005 14.151C36.6488 14.445 36.4695 14.8706 36.4695 15.4228C36.4695 15.9057 36.6536 16.293 37.0194 16.587C37.3851 16.8811 37.8632 17.0293 38.4513 17.0293C39.771 17.0293 40.634 16.6372 41.0356 15.8507C41.4372 15.0666 41.638 14.1104 41.638 12.9868V12.9605H41.6357Z" fill="#020521"/>
<path d="M52.0784 0.107422V19.6269H48.2773V0.107422H52.0784Z" fill="#020521"/>
<path d="M60.5936 5.35502V1.63281H64.3947V5.35502H66.7232V8.00623H64.3947V15.6634C64.3947 16.2874 64.4975 16.677 64.7031 16.8276C64.9087 16.9783 65.4131 17.0548 66.2164 17.0548H66.7256V19.8924C66.5821 19.9092 66.4387 19.9235 66.2977 19.9331C66.1542 19.9426 66.0036 19.9474 65.8434 19.9474C65.6115 19.9642 65.3797 19.9785 65.1478 19.9881C64.9159 19.9976 64.7007 20.0024 64.5047 20.0024C62.8265 20.0024 61.7555 19.6271 61.2917 18.8788C60.8279 18.1282 60.596 16.995 60.596 15.4793V8.00862H58.748V5.35741H60.596L60.5936 5.35502Z" fill="#020521"/>
<path d="M70.2602 6.21171C71.2786 5.40846 72.7871 5.00684 74.7857 5.00684C76.2488 5.00684 77.4536 5.19331 78.4003 5.56863C79.347 5.94396 80.0164 6.51532 80.4085 7.28271C80.4085 7.30184 80.418 7.31857 80.4348 7.33531C80.6141 7.67478 80.7336 8.05011 80.7957 8.4589C80.8579 8.87009 80.889 9.47731 80.889 10.2806V17.4285C80.889 17.9473 80.9463 18.38 81.0635 18.7267C81.1782 19.0757 81.3528 19.3745 81.5846 19.6231H77.7286C77.6401 19.4988 77.5588 19.3817 77.4871 19.2741C77.4154 19.1665 77.3628 19.059 77.3269 18.9538C77.2552 18.7936 77.2026 18.6191 77.1668 18.4326C77.1309 18.2461 77.1142 18.0166 77.1142 17.7489C76.8632 18.0166 76.6265 18.2629 76.4042 18.4852C76.1818 18.7075 75.9619 18.9012 75.7491 19.0613C75.2662 19.4175 74.7666 19.6638 74.2502 19.7977C73.7314 19.9315 73.1075 19.9985 72.3759 19.9985C71.1256 19.9985 70.1096 19.6112 69.3231 18.8342C68.5366 18.0573 68.1445 17.0365 68.1445 15.7694C68.1445 14.5024 68.4529 13.5605 69.0673 12.8385C69.6841 12.1166 70.6523 11.6121 71.9719 11.3253C72.6509 11.1818 73.4087 11.048 74.2478 10.9236C75.0869 10.7993 76.0145 10.6918 77.0329 10.6033C77.0329 9.74745 76.9134 9.09959 76.6719 8.66211C76.4304 8.22462 75.8113 8.00708 74.812 8.00708C73.9729 8.00708 73.3489 8.15529 72.9377 8.44934C72.5266 8.74339 72.2588 9.24781 72.1345 9.96261L68.6011 9.93631C68.6896 8.25809 69.2442 7.01735 70.2602 6.2141V6.21171ZM77.1142 12.9605C76.7747 13.0322 76.4759 13.0848 76.2177 13.1206C75.9595 13.1565 75.73 13.1828 75.534 13.2019C75.4097 13.2378 75.2925 13.2641 75.1849 13.2832C75.0774 13.2999 74.9698 13.3191 74.8646 13.3358C74.7761 13.3549 74.6901 13.3716 74.6112 13.3884C74.5299 13.4075 74.4462 13.4242 74.3578 13.441C73.4661 13.6203 72.8397 13.8569 72.4835 14.151C72.1273 14.445 71.948 14.8706 71.948 15.4228C71.948 15.9057 72.1321 16.293 72.4979 16.587C72.8636 16.8811 73.3418 17.0293 73.9298 17.0293C75.2495 17.0293 76.1125 16.6372 76.5141 15.8507C76.9157 15.0666 77.1166 14.1104 77.1166 12.9868V12.9605H77.1142Z" fill="#020521"/>
<path d="M86.7514 0.107422V7.52315C86.8757 7.36298 87 7.20759 87.1267 7.05459C87.251 6.90398 87.3682 6.76532 87.4758 6.63862C88.0113 6.05052 88.5635 5.62977 89.1349 5.38115C89.7062 5.13252 90.3565 5.00582 91.0904 5.00582C92.7853 5.00582 94.1384 5.66563 95.1473 6.98765C96.1561 8.30967 96.6606 10.0668 96.6606 12.2614C96.6606 14.5994 96.1346 16.4737 95.0803 17.8841C94.0261 19.2946 92.6252 19.9998 90.8776 19.9998C89.9501 19.9998 89.1731 19.7895 88.5491 19.3711C87.9252 18.9527 87.3251 18.2332 86.7562 17.2148V19.6245H82.9551V0.107422H86.7562H86.7514ZM92.7758 12.4765C92.7758 11.121 92.5224 10.0763 92.0132 9.34481C91.504 8.61328 90.7772 8.24751 89.8305 8.24751C88.8838 8.24751 88.1523 8.61328 87.6359 9.34481C87.1172 10.0763 86.859 11.1306 86.859 12.5052C86.859 13.8798 87.1172 14.9365 87.6359 15.6776C88.1523 16.4187 88.8862 16.7892 89.8305 16.7892C90.7748 16.7892 91.504 16.4187 92.0132 15.6776C92.5224 14.9365 92.7758 13.8798 92.7758 12.5052V12.4789V12.4765Z" fill="#020521"/>
<path d="M103.112 0.107422V19.6269H99.3105V0.107422H103.112Z" fill="#020521"/>
<path d="M110.529 16.118C110.992 16.7253 111.662 17.0289 112.537 17.0289C112.948 17.0289 113.295 16.9619 113.581 16.8281C113.866 16.6942 114.134 16.4575 114.385 16.118C114.456 16.0296 114.523 15.934 114.586 15.8359C114.648 15.7379 114.715 15.6256 114.786 15.5013L118.669 15.475C118.062 17.0456 117.258 18.1931 116.259 18.9151C115.26 19.637 113.983 20.0004 112.429 20.0004C110.34 20.0004 108.707 19.3454 107.528 18.0329C106.35 16.7205 105.762 14.9036 105.762 12.5847C105.762 10.2658 106.345 8.33176 107.516 7.00257C108.685 5.67338 110.313 5.00879 112.403 5.00879C114.492 5.00879 116.156 5.65426 117.289 6.94281C118.422 8.23375 118.989 10.096 118.989 12.5345V12.9218C118.989 13.0031 118.98 13.1035 118.963 13.2278H109.699C109.788 14.5498 110.065 15.5132 110.529 16.1204V16.118ZM114.999 10.763C114.911 9.88806 114.638 9.20912 114.182 8.72861C113.727 8.2457 113.115 8.00664 112.348 8.00664C111.581 8.00664 110.969 8.2457 110.514 8.72383C110.06 9.20195 109.788 9.88089 109.697 10.7654H114.999V10.763Z" fill="#020521"/>
<path d="M14.1917 0.107422H10.3906V3.19611H14.1917V0.107422Z" fill="#020521"/>
</g>
<defs>
<clipPath id="clip0_39_3258">
<rect width="118.989" height="20" fill="white"/>
</clipPath>
</defs>
</svg>
