<svg width="1819" height="335" viewBox="0 0 1819 335" fill="none" xmlns="http://www.w3.org/2000/svg">
<rect width="335.002" height="335.002" rx="90" fill="url(#paint0_linear_164_2360)"/>
<path d="M98.2158 119.118C98.2158 80.8528 129.236 49.833 167.501 49.833C205.766 49.833 236.785 80.8529 236.785 119.118L236.785 215.878C236.785 254.143 205.766 285.162 167.501 285.162C129.236 285.162 98.2158 254.143 98.2158 215.878L98.2158 119.118Z" fill="url(#paint1_linear_164_2360)" fill-opacity="0.4"/>
<path d="M84.3778 182.131C57.3839 155.137 57.3839 111.371 84.3778 84.3771C111.372 57.3832 155.137 57.3832 182.131 84.3771L250.623 152.869C277.617 179.863 277.617 223.629 250.623 250.623C223.629 277.616 179.864 277.616 152.87 250.623L84.3778 182.131Z" fill="url(#paint2_linear_164_2360)" fill-opacity="0.4"/>
<path d="M119.121 236.586C80.9659 236.586 50.0352 205.655 50.0352 167.5C50.0352 129.345 80.9659 98.4146 119.121 98.4146L215.881 98.4146C254.036 98.4146 284.966 129.345 284.966 167.5C284.966 205.655 254.036 236.586 215.881 236.586L119.121 236.586Z" fill="url(#paint3_linear_164_2360)" fill-opacity="0.4"/>
<path d="M182.132 250.624C155.138 277.618 111.372 277.618 84.3781 250.624C57.3842 223.63 57.3842 179.865 84.3781 152.871L152.87 84.3788C179.864 57.3849 223.63 57.3849 250.623 84.3788C277.617 111.373 277.617 155.138 250.623 182.132L182.132 250.624Z" fill="url(#paint4_linear_164_2360)" fill-opacity="0.4"/>
<g clip-path="url(#clip0_164_2360)">
<path d="M415.415 111.761C415.415 90.8765 418.37 74.955 424.251 63.9676C430.132 52.9803 444.648 47.501 467.799 47.501C469.95 47.501 472.36 47.5584 475.028 47.6731C477.696 47.7879 480.421 48.046 483.232 48.4764C484.294 48.4764 485.327 48.5337 486.273 48.6485C487.249 48.7632 488.138 48.8206 488.999 48.8206V85.4259C485.986 86.0857 483.261 86.516 480.794 86.7168C478.327 86.9463 476.233 87.1472 474.54 87.3767H473.565C468.63 87.807 465.303 88.7824 463.61 90.2741C461.889 91.7659 461.028 95.6387 461.028 101.835V111.79H561.263V144.235H461.057V283.026H415.444V144.235H391.002V111.79H415.415V111.761Z" fill="black"/>
<path d="M561.295 111.763V283.027H515.682V111.763H561.295Z" fill="black"/>
<path d="M650.624 111.763V137.151C651.685 135.86 652.776 134.483 653.837 132.963C654.898 131.471 655.989 130.065 657.05 128.774C663.476 121.057 670.16 115.607 677.131 112.394C684.102 109.181 692.508 107.574 702.348 107.574C714.339 107.574 725.326 110.615 735.281 116.726C745.235 122.836 751.92 130.582 755.362 140.02C757.083 144.524 758.26 149.544 758.891 155.109C759.522 160.675 759.866 167.847 759.866 176.625V282.97H714.253V180.154C714.253 168.793 712.015 160.331 707.511 154.765C703.007 149.2 696.036 146.417 686.627 146.417C672.283 146.417 662.73 151.351 658.025 161.191C653.321 171.06 650.853 181.875 650.624 193.637V282.97H605.011V111.763H650.624Z" fill="black"/>
<path d="M808.379 122.033C820.6 112.394 838.701 107.574 862.684 107.574C880.241 107.574 894.7 109.812 906.06 114.316C917.42 118.82 925.453 125.676 930.157 134.885C930.157 135.114 930.272 135.315 930.473 135.516C932.624 139.59 934.059 144.093 934.805 148.999C935.551 153.933 935.924 161.22 935.924 170.859V256.635C935.924 262.86 936.612 268.052 938.018 272.212C939.395 276.4 941.489 279.986 944.272 282.97H897.999C896.937 281.478 895.962 280.072 895.101 278.781C894.241 277.491 893.609 276.2 893.179 274.937C892.318 273.015 891.687 270.921 891.257 268.683C890.827 266.446 890.626 263.692 890.626 260.479C887.614 263.692 884.774 266.647 882.106 269.315C879.438 271.983 876.798 274.306 874.245 276.228C868.45 280.503 862.455 283.458 856.258 285.064C850.033 286.671 842.546 287.474 833.767 287.474C818.764 287.474 806.571 282.826 797.133 273.503C787.695 264.18 782.99 251.93 782.99 236.726C782.99 221.521 786.691 210.218 794.064 201.555C801.465 192.891 813.083 186.838 828.919 183.395C837.066 181.674 846.16 180.068 856.23 178.576C866.299 177.084 877.43 175.793 889.651 174.732C889.651 164.462 888.216 156.687 885.319 151.437C882.421 146.188 874.991 143.577 863 143.577C852.93 143.577 845.443 145.356 840.509 148.884C835.575 152.413 832.362 158.466 830.87 167.043L788.47 166.728C789.531 146.589 796.187 131.7 808.379 122.061V122.033ZM890.626 203.018C886.552 203.878 882.966 204.509 879.868 204.94C876.77 205.37 874.016 205.686 871.663 205.915C870.172 206.345 868.766 206.661 867.475 206.891C866.184 207.091 864.893 207.321 863.631 207.522C862.569 207.751 861.537 207.952 860.59 208.153C859.615 208.382 858.611 208.583 857.549 208.784C846.849 210.935 839.333 213.776 835.058 217.304C830.784 220.833 828.632 225.939 828.632 232.566C828.632 238.361 830.841 243.008 835.23 246.537C839.619 250.065 845.357 251.844 852.414 251.844C868.25 251.844 878.606 247.139 883.425 237.701C888.245 228.291 890.655 216.816 890.655 203.333V203.018H890.626Z" fill="black"/>
<path d="M1015.93 48.792V283.026H970.316V48.792H1015.93Z" fill="black"/>
<path d="M1118.12 111.761V67.0947H1163.73V111.761H1191.67V143.576H1163.73V235.462C1163.73 242.949 1164.96 247.625 1167.43 249.433C1169.9 251.24 1175.95 252.158 1185.59 252.158H1191.7V286.21C1189.98 286.411 1188.26 286.583 1186.57 286.698C1184.84 286.813 1183.04 286.87 1181.12 286.87C1178.33 287.071 1175.55 287.243 1172.77 287.358C1169.98 287.472 1167.4 287.53 1165.05 287.53C1144.91 287.53 1132.06 283.026 1126.49 274.047C1120.93 265.039 1118.15 251.441 1118.15 233.253V143.604H1095.97V111.79H1118.15L1118.12 111.761Z" fill="black"/>
<path d="M1234.1 122.033C1246.32 112.394 1264.42 107.574 1288.4 107.574C1305.96 107.574 1320.42 109.812 1331.78 114.316C1343.14 118.82 1351.17 125.676 1355.88 134.885C1355.88 135.114 1355.99 135.315 1356.19 135.516C1358.34 139.59 1359.78 144.093 1360.52 148.999C1361.27 153.933 1361.64 161.22 1361.64 170.859V256.635C1361.64 262.86 1362.33 268.052 1363.74 272.212C1365.11 276.4 1367.21 279.986 1369.99 282.97H1323.72C1322.65 281.478 1321.68 280.072 1320.82 278.781C1319.96 277.491 1319.33 276.2 1318.9 274.937C1318.04 273.015 1317.41 270.921 1316.97 268.683C1316.54 266.446 1316.34 263.692 1316.34 260.479C1313.33 263.692 1310.49 266.647 1307.82 269.315C1305.16 271.983 1302.52 274.306 1299.96 276.228C1294.17 280.503 1288.17 283.458 1281.98 285.064C1275.75 286.671 1268.26 287.474 1259.48 287.474C1244.48 287.474 1232.29 282.826 1222.85 273.503C1213.41 264.18 1208.71 251.93 1208.71 236.726C1208.71 221.521 1212.41 210.218 1219.78 201.555C1227.18 192.891 1238.8 186.838 1254.64 183.395C1262.78 181.674 1271.88 180.068 1281.95 178.576C1292.02 177.084 1303.15 175.793 1315.37 174.732C1315.37 164.462 1313.93 156.687 1311.04 151.437C1308.14 146.188 1300.71 143.577 1288.72 143.577C1278.65 143.577 1271.16 145.356 1266.23 148.884C1261.29 152.413 1258.08 158.466 1256.59 167.043L1214.19 166.728C1215.25 146.589 1221.9 131.7 1234.1 122.061V122.033ZM1316.34 203.018C1312.27 203.878 1308.68 204.509 1305.59 204.94C1302.49 205.37 1299.73 205.686 1297.38 205.915C1295.89 206.345 1294.48 206.661 1293.19 206.891C1291.9 207.091 1290.61 207.321 1289.35 207.522C1288.29 207.751 1287.25 207.952 1286.31 208.153C1285.33 208.382 1284.33 208.583 1283.27 208.784C1272.57 210.935 1265.05 213.776 1260.78 217.304C1256.5 220.833 1254.35 225.939 1254.35 232.566C1254.35 238.361 1256.56 243.008 1260.95 246.537C1265.34 250.065 1271.07 251.844 1278.13 251.844C1293.97 251.844 1304.32 247.139 1309.14 237.701C1313.96 228.291 1316.37 216.816 1316.37 203.333V203.018H1316.34Z" fill="black"/>
<path d="M1432.02 48.792V137.781C1433.51 135.859 1435 133.994 1436.52 132.158C1438.01 130.351 1439.42 128.687 1440.71 127.166C1447.13 120.109 1453.76 115.06 1460.62 112.077C1467.47 109.093 1475.28 107.573 1484.08 107.573C1504.42 107.573 1520.66 115.491 1532.77 131.355C1544.87 147.219 1550.93 168.304 1550.93 194.639C1550.93 222.696 1544.61 245.187 1531.96 262.113C1519.31 279.038 1502.5 287.501 1481.53 287.501C1470.4 287.501 1461.08 284.977 1453.59 279.956C1446.1 274.936 1438.9 266.301 1432.07 254.08V282.997H1386.46V48.792H1432.07H1432.02ZM1504.31 197.221C1504.31 180.956 1501.27 168.419 1495.16 159.641C1489.05 150.862 1480.33 146.473 1468.97 146.473C1457.61 146.473 1448.83 150.862 1442.63 159.641C1436.4 168.419 1433.31 181.07 1433.31 197.566C1433.31 214.061 1436.4 226.741 1442.63 235.634C1448.83 244.527 1457.63 248.974 1468.97 248.974C1480.3 248.974 1489.05 244.527 1495.16 235.634C1501.27 226.741 1504.31 214.061 1504.31 197.566V197.25V197.221Z" fill="black"/>
<path d="M1628.33 48.792V283.026H1582.71V48.792H1628.33Z" fill="black"/>
<path d="M1717.34 240.914C1722.91 248.2 1730.94 251.844 1741.44 251.844C1746.37 251.844 1750.53 251.04 1753.98 249.434C1757.39 247.827 1760.6 244.987 1763.62 240.914C1764.48 239.852 1765.28 238.705 1766.03 237.528C1766.77 236.352 1767.57 235.004 1768.44 233.512L1815.02 233.197C1807.74 252.044 1798.1 265.814 1786.11 274.478C1774.12 283.142 1758.8 287.502 1740.15 287.502C1715.08 287.502 1695.48 279.642 1681.34 263.892C1667.2 248.143 1660.14 226.34 1660.14 198.513C1660.14 170.686 1667.14 147.478 1681.2 131.528C1695.22 115.578 1714.76 107.603 1739.83 107.603C1764.91 107.603 1784.87 115.348 1798.47 130.811C1812.07 146.302 1818.87 168.65 1818.87 197.911V202.558C1818.87 203.534 1818.75 204.739 1818.55 206.23H1707.39C1708.45 222.095 1711.78 233.656 1717.34 240.942V240.914ZM1770.99 176.653C1769.93 166.154 1766.66 158.007 1761.18 152.24C1755.73 146.445 1748.38 143.577 1739.17 143.577C1729.97 143.577 1722.62 146.445 1717.17 152.183C1711.72 157.92 1708.45 166.068 1707.36 176.682H1770.99V176.653Z" fill="black"/>
<path d="M561.295 48.792H515.682V85.8563H561.295V48.792Z" fill="black"/>
</g>
<defs>
<linearGradient id="paint0_linear_164_2360" x1="167.501" y1="0" x2="167.501" y2="335.002" gradientUnits="userSpaceOnUse">
<stop stop-color="#EFFFF6"/>
<stop offset="1" stop-color="#D5F1E0"/>
</linearGradient>
<linearGradient id="paint1_linear_164_2360" x1="167.501" y1="49.833" x2="167.501" y2="285.162" gradientUnits="userSpaceOnUse">
<stop stop-color="#00FF73"/>
<stop offset="1" stop-color="#00188D"/>
</linearGradient>
<linearGradient id="paint2_linear_164_2360" x1="84.3778" y1="84.3771" x2="250.623" y2="250.623" gradientUnits="userSpaceOnUse">
<stop stop-color="#00FF73"/>
<stop offset="1" stop-color="#00188D"/>
</linearGradient>
<linearGradient id="paint3_linear_164_2360" x1="50.0352" y1="167.5" x2="284.966" y2="167.5" gradientUnits="userSpaceOnUse">
<stop stop-color="#00FF73"/>
<stop offset="1" stop-color="#00188D"/>
</linearGradient>
<linearGradient id="paint4_linear_164_2360" x1="84.3781" y1="250.624" x2="250.623" y2="84.3788" gradientUnits="userSpaceOnUse">
<stop stop-color="#00FF73"/>
<stop offset="1" stop-color="#00188D"/>
</linearGradient>
<clipPath id="clip0_164_2360">
<rect width="1427.87" height="240" fill="white" transform="translate(391.002 47.501)"/>
</clipPath>
</defs>
</svg>
