<svg width="1808" height="324" viewBox="0 0 1808 324" fill="none" xmlns="http://www.w3.org/2000/svg">
<path d="M77.0439 102.655C77.0439 55.7354 115.08 17.6992 162 17.6992C208.92 17.6992 246.956 55.7354 246.956 102.655L246.956 221.344C246.956 268.264 208.92 306.3 162 306.3C115.08 306.3 77.0439 268.264 77.0439 221.344L77.0439 102.655Z" fill="url(#paint0_linear_164_2418)" fill-opacity="0.4"/>
<path d="M162 21.8633C206.62 21.8633 242.792 58.0353 242.792 102.655L242.792 221.345C242.792 265.965 206.62 302.136 162 302.136C117.38 302.136 81.2083 265.964 81.208 221.345L81.208 102.655C81.2081 58.0354 117.38 21.8634 162 21.8633Z" stroke="url(#paint1_linear_164_2418)" stroke-opacity="0.5" stroke-width="8.32904"/>
<path d="M59.9853 179.956C26.8563 146.827 26.8564 93.1143 59.9854 59.9853C93.1143 26.8564 146.827 26.8563 179.956 59.9853L264.015 144.044C297.144 177.173 297.143 230.885 264.014 264.014C230.885 297.143 177.173 297.143 144.044 264.014L59.9853 179.956Z" fill="url(#paint2_linear_164_2418)" fill-opacity="0.4"/>
<path d="M62.9297 62.9298C94.4324 31.4272 145.509 31.4272 177.011 62.9298L261.07 146.989C292.573 178.491 292.572 229.567 261.069 261.07C229.567 292.572 178.491 292.573 146.988 261.07L62.9297 177.012C31.4271 145.509 31.4271 94.4325 62.9297 62.9298Z" stroke="url(#paint3_linear_164_2418)" stroke-opacity="0.5" stroke-width="8.32904"/>
<path d="M102.656 246.747C55.8512 246.747 17.9082 208.804 17.9082 161.999C17.9082 115.194 55.8512 77.2511 102.656 77.2511L221.345 77.2511C268.15 77.2511 306.093 115.194 306.093 161.999C306.093 208.804 268.15 246.747 221.345 246.747L102.656 246.747Z" fill="url(#paint4_linear_164_2418)" fill-opacity="0.4"/>
<path d="M22.0723 161.999C22.0723 117.494 58.1512 81.416 102.656 81.416L221.345 81.416C265.85 81.416 301.929 117.494 301.929 161.999C301.929 206.504 265.85 242.583 221.345 242.583L102.656 242.583C58.1512 242.583 22.0723 206.504 22.0723 161.999Z" stroke="url(#paint5_linear_164_2418)" stroke-opacity="0.5" stroke-width="8.32904"/>
<path d="M144.044 59.9853C177.173 26.8563 230.886 26.8564 264.015 59.9853C297.144 93.1143 297.144 146.827 264.015 179.956L179.956 264.015C146.827 297.144 93.1145 297.143 59.9855 264.014C26.8565 230.885 26.8565 177.173 59.9855 144.044L144.044 59.9853Z" fill="url(#paint6_linear_164_2418)" fill-opacity="0.4"/>
<path d="M261.07 62.9297C292.573 94.4324 292.573 145.509 261.07 177.011L177.011 261.07C145.509 292.573 94.433 292.572 62.9304 261.069C31.4279 229.567 31.4273 178.491 62.9297 146.988L146.988 62.9297C178.491 31.4271 229.568 31.4271 261.07 62.9297Z" stroke="url(#paint7_linear_164_2418)" stroke-opacity="0.5" stroke-width="8.32904"/>
<g clip-path="url(#clip0_164_2418)">
<path d="M404.413 106.26C404.413 85.3756 407.368 69.454 413.249 58.4666C419.13 47.4793 433.646 42 456.797 42C458.948 42 461.358 42.0574 464.026 42.1721C466.694 42.2869 469.419 42.5451 472.23 42.9754C473.292 42.9754 474.325 43.0328 475.271 43.1475C476.247 43.2623 477.136 43.3196 477.997 43.3196V79.9249C474.984 80.5847 472.259 81.0151 469.792 81.2159C467.325 81.4454 465.231 81.6462 463.538 81.8757H462.563C457.628 82.306 454.301 83.2814 452.608 84.7731C450.887 86.2649 450.026 90.1377 450.026 96.3342V106.289H550.261V138.734H450.055V277.525H404.442V138.734H380V106.289H404.413V106.26Z" fill="black"/>
<path d="M550.293 106.262V277.526H504.68V106.262H550.293Z" fill="black"/>
<path d="M639.622 106.262V131.65C640.683 130.359 641.774 128.982 642.835 127.462C643.896 125.97 644.987 124.564 646.048 123.273C652.474 115.556 659.158 110.106 666.129 106.893C673.1 103.68 681.506 102.073 691.346 102.073C703.337 102.073 714.324 105.114 724.279 111.225C734.234 117.335 740.918 125.081 744.36 134.519C746.081 139.023 747.258 144.043 747.889 149.608C748.52 155.174 748.864 162.346 748.864 171.124V277.469H703.251V174.653C703.251 163.292 701.013 154.83 696.509 149.264C692.005 143.699 685.034 140.916 675.625 140.916C661.281 140.916 651.728 145.85 647.023 155.69C642.319 165.559 639.851 176.374 639.622 188.136V277.469H594.009V106.262H639.622Z" fill="black"/>
<path d="M797.377 116.532C809.598 106.893 827.699 102.073 851.682 102.073C869.239 102.073 883.698 104.311 895.058 108.815C906.418 113.319 914.451 120.175 919.155 129.384C919.155 129.613 919.27 129.814 919.471 130.015C921.623 134.089 923.057 138.592 923.803 143.498C924.549 148.432 924.922 155.719 924.922 165.358V251.134C924.922 257.359 925.61 262.551 927.016 266.711C928.393 270.899 930.487 274.485 933.27 277.469H886.997C885.935 275.977 884.96 274.571 884.099 273.281C883.239 271.99 882.607 270.699 882.177 269.436C881.317 267.514 880.685 265.42 880.255 263.182C879.825 260.945 879.624 258.191 879.624 254.978C876.612 258.191 873.772 261.146 871.104 263.814C868.436 266.482 865.797 268.805 863.243 270.727C857.448 275.002 851.453 277.957 845.256 279.563C839.031 281.17 831.544 281.973 822.765 281.973C807.762 281.973 795.569 277.325 786.131 268.002C776.693 258.679 771.988 246.429 771.988 231.225C771.988 216.02 775.689 204.717 783.062 196.054C790.463 187.39 802.081 181.337 817.917 177.894C826.064 176.173 835.158 174.567 845.228 173.075C855.297 171.583 866.428 170.292 878.649 169.231C878.649 158.961 877.214 151.186 874.317 145.936C871.419 140.687 863.989 138.076 851.998 138.076C841.929 138.076 834.441 139.855 829.507 143.383C824.573 146.912 821.36 152.965 819.868 161.543L777.468 161.227C778.529 141.088 785.185 126.199 797.377 116.56V116.532ZM879.624 197.517C875.55 198.377 871.964 199.008 868.866 199.439C865.768 199.869 863.014 200.185 860.661 200.414C859.17 200.844 857.764 201.16 856.473 201.39C855.182 201.59 853.891 201.82 852.629 202.021C851.568 202.25 850.535 202.451 849.588 202.652C848.613 202.881 847.609 203.082 846.547 203.283C835.847 205.434 828.331 208.275 824.056 211.803C819.782 215.332 817.63 220.438 817.63 227.065C817.63 232.86 819.839 237.507 824.228 241.036C828.618 244.564 834.355 246.343 841.412 246.343C857.248 246.343 867.604 241.638 872.423 232.2C877.243 222.79 879.653 211.315 879.653 197.832V197.517H879.624Z" fill="black"/>
<path d="M1004.93 43.291V277.525H959.314V43.291H1004.93Z" fill="black"/>
<path d="M1107.12 106.26V61.5938H1152.73V106.26H1180.67V138.075H1152.73V229.961C1152.73 237.448 1153.96 242.124 1156.43 243.932C1158.9 245.739 1164.95 246.657 1174.59 246.657H1180.7V280.709C1178.98 280.91 1177.26 281.082 1175.56 281.197C1173.84 281.312 1172.04 281.369 1170.11 281.369C1167.33 281.57 1164.55 281.742 1161.77 281.857C1158.98 281.971 1156.4 282.029 1154.05 282.029C1133.91 282.029 1121.06 277.525 1115.49 268.546C1109.93 259.538 1107.14 245.94 1107.14 227.752V138.103H1084.97V106.289H1107.14L1107.12 106.26Z" fill="black"/>
<path d="M1223.09 116.532C1235.32 106.893 1253.42 102.073 1277.4 102.073C1294.96 102.073 1309.42 104.311 1320.78 108.815C1332.14 113.319 1340.17 120.175 1344.87 129.384C1344.87 129.613 1344.99 129.814 1345.19 130.015C1347.34 134.089 1348.77 138.592 1349.52 143.498C1350.27 148.432 1350.64 155.719 1350.64 165.358V251.134C1350.64 257.359 1351.33 262.551 1352.73 266.711C1354.11 270.899 1356.2 274.485 1358.99 277.469H1312.71C1311.65 275.977 1310.68 274.571 1309.82 273.281C1308.96 271.99 1308.33 270.699 1307.89 269.436C1307.03 267.514 1306.4 265.42 1305.97 263.182C1305.54 260.945 1305.34 258.191 1305.34 254.978C1302.33 258.191 1299.49 261.146 1296.82 263.814C1294.15 266.482 1291.51 268.805 1288.96 270.727C1283.17 275.002 1277.17 277.957 1270.97 279.563C1264.75 281.17 1257.26 281.973 1248.48 281.973C1233.48 281.973 1221.29 277.325 1211.85 268.002C1202.41 258.679 1197.71 246.429 1197.71 231.225C1197.71 216.02 1201.41 204.717 1208.78 196.054C1216.18 187.39 1227.8 181.337 1243.63 177.894C1251.78 176.173 1260.88 174.567 1270.95 173.075C1281.01 171.583 1292.15 170.292 1304.37 169.231C1304.37 158.961 1302.93 151.186 1300.03 145.936C1297.14 140.687 1289.71 138.076 1277.72 138.076C1267.65 138.076 1260.16 139.855 1255.22 143.383C1250.29 146.912 1247.08 152.965 1245.59 161.543L1203.19 161.227C1204.25 141.088 1210.9 126.199 1223.09 116.56V116.532ZM1305.34 197.517C1301.27 198.377 1297.68 199.008 1294.58 199.439C1291.49 199.869 1288.73 200.185 1286.38 200.414C1284.89 200.844 1283.48 201.16 1282.19 201.39C1280.9 201.59 1279.61 201.82 1278.35 202.021C1277.29 202.25 1276.25 202.451 1275.31 202.652C1274.33 202.881 1273.33 203.082 1272.26 203.283C1261.56 205.434 1254.05 208.275 1249.77 211.803C1245.5 215.332 1243.35 220.438 1243.35 227.065C1243.35 232.86 1245.56 237.507 1249.95 241.036C1254.34 244.564 1260.07 246.343 1267.13 246.343C1282.97 246.343 1293.32 241.638 1298.14 232.2C1302.96 222.79 1305.37 211.315 1305.37 197.832V197.517H1305.34Z" fill="black"/>
<path d="M1421.01 43.291V132.28C1422.51 130.358 1424 128.493 1425.52 126.657C1427.01 124.85 1428.42 123.186 1429.71 121.665C1436.13 114.608 1442.76 109.559 1449.62 106.576C1456.47 103.592 1464.27 102.072 1473.08 102.072C1493.42 102.072 1509.66 109.99 1521.76 125.854C1533.87 141.718 1539.92 162.803 1539.92 189.138C1539.92 217.195 1533.61 239.686 1520.96 256.612C1508.31 273.537 1491.5 282 1470.53 282C1459.4 282 1450.07 279.476 1442.59 274.455C1435.1 269.435 1427.9 260.8 1421.07 248.579V277.496H1375.46V43.291H1421.07H1421.01ZM1493.31 191.72C1493.31 175.455 1490.27 162.918 1484.16 154.14C1478.04 145.361 1469.32 140.972 1457.96 140.972C1446.6 140.972 1437.82 145.361 1431.63 154.14C1425.4 162.918 1422.3 175.569 1422.3 192.065C1422.3 208.56 1425.4 221.24 1431.63 230.133C1437.82 239.026 1446.63 243.473 1457.96 243.473C1469.29 243.473 1478.04 239.026 1484.16 230.133C1490.27 221.24 1493.31 208.56 1493.31 192.065V191.749V191.72Z" fill="black"/>
<path d="M1617.32 43.291V277.525H1571.71V43.291H1617.32Z" fill="black"/>
<path d="M1706.34 235.413C1711.91 242.699 1719.94 246.343 1730.44 246.343C1735.37 246.343 1739.53 245.539 1742.97 243.933C1746.39 242.326 1749.6 239.486 1752.61 235.413C1753.47 234.351 1754.28 233.204 1755.02 232.027C1755.77 230.851 1756.57 229.503 1757.43 228.011L1804.02 227.696C1796.74 246.543 1787.1 260.313 1775.1 268.977C1763.11 277.641 1747.79 282.001 1729.15 282.001C1704.07 282.001 1684.48 274.141 1670.34 258.391C1656.19 242.642 1649.14 220.839 1649.14 193.012C1649.14 165.185 1656.14 141.977 1670.19 126.027C1684.22 110.077 1703.76 102.102 1728.83 102.102C1753.9 102.102 1773.87 109.847 1787.47 125.31C1801.07 140.801 1807.87 163.149 1807.87 192.41V197.057C1807.87 198.033 1807.75 199.238 1807.55 200.729H1696.39C1697.45 216.594 1700.78 228.155 1706.34 235.441V235.413ZM1759.99 171.152C1758.92 160.653 1755.65 152.506 1750.18 146.739C1744.72 140.944 1737.38 138.076 1728.17 138.076C1718.96 138.076 1711.62 140.944 1706.17 146.682C1700.72 152.42 1697.45 160.567 1696.36 171.181H1759.99V171.152Z" fill="black"/>
<path d="M550.293 43.291H504.68V80.3553H550.293V43.291Z" fill="black"/>
</g>
<defs>
<linearGradient id="paint0_linear_164_2418" x1="162" y1="17.6992" x2="162" y2="306.3" gradientUnits="userSpaceOnUse">
<stop stop-color="#00FF73"/>
<stop offset="1" stop-color="#00188D"/>
</linearGradient>
<linearGradient id="paint1_linear_164_2418" x1="162" y1="17.6992" x2="162" y2="306.3" gradientUnits="userSpaceOnUse">
<stop stop-color="#DDFFD4"/>
<stop offset="1" stop-color="#38D7FF"/>
</linearGradient>
<linearGradient id="paint2_linear_164_2418" x1="59.9854" y1="59.9854" x2="264.014" y2="264.014" gradientUnits="userSpaceOnUse">
<stop stop-color="#00FF73"/>
<stop offset="1" stop-color="#00188D"/>
</linearGradient>
<linearGradient id="paint3_linear_164_2418" x1="59.9854" y1="59.9854" x2="264.014" y2="264.014" gradientUnits="userSpaceOnUse">
<stop stop-color="#DDFFD4"/>
<stop offset="1" stop-color="#38D7FF"/>
</linearGradient>
<linearGradient id="paint4_linear_164_2418" x1="17.9082" y1="161.999" x2="306.093" y2="161.999" gradientUnits="userSpaceOnUse">
<stop stop-color="#00FF73"/>
<stop offset="1" stop-color="#00188D"/>
</linearGradient>
<linearGradient id="paint5_linear_164_2418" x1="17.9082" y1="161.999" x2="306.093" y2="161.999" gradientUnits="userSpaceOnUse">
<stop stop-color="#DDFFD4"/>
<stop offset="1" stop-color="#38D7FF"/>
</linearGradient>
<linearGradient id="paint6_linear_164_2418" x1="264.015" y1="59.9853" x2="59.9855" y2="264.014" gradientUnits="userSpaceOnUse">
<stop stop-color="#00FF73"/>
<stop offset="1" stop-color="#00188D"/>
</linearGradient>
<linearGradient id="paint7_linear_164_2418" x1="264.015" y1="59.9853" x2="59.9855" y2="264.014" gradientUnits="userSpaceOnUse">
<stop stop-color="#DDFFD4"/>
<stop offset="1" stop-color="#38D7FF"/>
</linearGradient>
<clipPath id="clip0_164_2418">
<rect width="1427.87" height="240" fill="white" transform="translate(380 42)"/>
</clipPath>
</defs>
</svg>
