<?xml version="1.0" encoding="UTF-8"?>
<svg id="Layer_2" data-name="Layer 2" xmlns="http://www.w3.org/2000/svg" xmlns:xlink="http://www.w3.org/1999/xlink" viewBox="0 0 880.07 139.7">
  <defs>
    <style>
      .cls-1 {
        fill: #a2f69a;
        filter: url(#drop-shadow-2);
      }

      .cls-2, .cls-3 {
        fill: #fff;
      }

      .cls-2, .cls-3, .cls-4 {
        opacity: .95;
      }

      .cls-3 {
        filter: url(#drop-shadow-1);
      }
    </style>
    <filter id="drop-shadow-1" x="55.01" y="35.3" width="67" height="73" filterUnits="userSpaceOnUse">
      <feOffset dx="1.85" dy="1.85"/>
      <feGaussianBlur result="blur" stdDeviation="4.62"/>
      <feFlood flood-color="#294743" flood-opacity=".75"/>
      <feComposite in2="blur" operator="in"/>
      <feComposite in="SourceGraphic"/>
    </filter>
    <filter id="drop-shadow-2" x="15.55" y="21.84" width="113" height="113" filterUnits="userSpaceOnUse">
      <feOffset dx="1.85" dy="8.31"/>
      <feGaussianBlur result="blur-2" stdDeviation="2.77"/>
      <feFlood flood-color="#294743" flood-opacity=".75"/>
      <feComposite in2="blur-2" operator="in"/>
      <feComposite in="SourceGraphic"/>
    </filter>
  </defs>
  <g id="Layer_1-2" data-name="Layer 1">
    <g>
      <g class="cls-4">
        <path d="M189.83,41.74c0-10.27,1.45-18.1,4.35-23.5,2.9-5.4,10.03-8.1,21.41-8.1,1.05,0,2.24.03,3.56.08,1.32.05,2.66.19,4.03.4.53,0,1.03.03,1.5.08.47.05.92.08,1.34.08v18.01c-1.48.32-2.82.53-4.03.64-1.21.11-2.24.21-3.08.32h-.47c-2.42.21-4.06.69-4.9,1.42-.84.74-1.26,2.64-1.26,5.69v4.9h49.3v15.96h-49.3v68.27h-22.44V57.7h-12.01v-15.96h12.01Z"/>
        <path d="M261.57,41.74v84.23h-22.44V41.74h22.44Z"/>
        <path d="M305.5,41.74v12.48c.53-.63,1.05-1.32,1.58-2.05.53-.74,1.05-1.42,1.58-2.05,3.16-3.79,6.45-6.48,9.88-8.06,3.42-1.58,7.56-2.37,12.4-2.37,5.9,0,11.3,1.5,16.2,4.5,4.9,3,8.19,6.82,9.88,11.46.84,2.21,1.42,4.69,1.74,7.43.32,2.74.47,6.27.47,10.59v52.31h-22.44v-50.57c0-5.58-1.11-9.74-3.32-12.48-2.21-2.74-5.64-4.11-10.27-4.11-7.06,0-11.75,2.43-14.06,7.27-2.32,4.85-3.53,10.17-3.63,15.96v43.93h-22.44V41.74h22.44Z"/>
        <path d="M383.09,46.8c6.01-4.74,14.91-7.11,26.71-7.11,8.64,0,15.75,1.11,21.33,3.32,5.58,2.21,9.53,5.59,11.85,10.11,0,.11.05.21.16.32,1.05,2,1.76,4.22,2.13,6.64.37,2.42.55,6,.55,10.75v42.19c0,3.06.34,5.61,1.03,7.66.68,2.05,1.71,3.82,3.08,5.29h-22.75c-.53-.74-1-1.42-1.42-2.05-.42-.63-.74-1.26-.95-1.9-.42-.95-.74-1.98-.95-3.08-.21-1.11-.32-2.45-.32-4.03-1.48,1.58-2.87,3.03-4.19,4.35s-2.61,2.45-3.87,3.4c-2.84,2.11-5.79,3.56-8.85,4.35-3.06.79-6.74,1.18-11.06,1.18-7.38,0-13.38-2.29-18.01-6.87-4.64-4.58-6.95-10.61-6.95-18.09s1.82-13.04,5.45-17.3c3.63-4.27,9.35-7.24,17.15-8.93,4-.84,8.48-1.63,13.43-2.37,4.95-.74,10.43-1.37,16.43-1.9,0-5.06-.71-8.87-2.13-11.46-1.42-2.58-5.08-3.87-10.98-3.87-4.95,0-8.64.87-11.06,2.61-2.42,1.74-4,4.72-4.74,8.93l-20.86-.16c.53-9.9,3.79-17.22,9.8-21.96ZM423.54,86.62c-2,.42-3.77.74-5.29.95-1.53.21-2.87.37-4.03.47-.74.21-1.42.37-2.05.47-.63.11-1.26.21-1.9.32-.53.11-1.03.21-1.5.32-.47.11-.98.21-1.5.32-5.27,1.05-8.96,2.45-11.06,4.19-2.11,1.74-3.16,4.24-3.16,7.51,0,2.84,1.08,5.14,3.24,6.87,2.16,1.74,4.98,2.61,8.45,2.61,7.79,0,12.88-2.32,15.25-6.95,2.37-4.63,3.56-10.27,3.56-16.91v-.16Z"/>
        <path d="M485.17,10.77v115.2h-22.44V10.77h22.44Z"/>
        <path d="M535.42,41.74v-21.97h22.44v21.97h13.75v15.64h-13.75v45.2c0,3.69.6,5.98,1.82,6.87,1.21.9,4.19,1.34,8.93,1.34h3v16.75c-.84.1-1.69.18-2.53.24-.84.05-1.74.08-2.69.08-1.37.1-2.74.18-4.11.24-1.37.05-2.63.08-3.79.08-9.9,0-16.22-2.21-18.96-6.64-2.74-4.43-4.11-11.11-4.11-20.07v-44.09h-10.9v-15.64h10.9Z"/>
        <path d="M592.47,46.8c6.01-4.74,14.91-7.11,26.71-7.11,8.64,0,15.75,1.11,21.33,3.32,5.58,2.21,9.53,5.59,11.85,10.11,0,.11.05.21.16.32,1.05,2,1.76,4.22,2.13,6.64.37,2.42.55,6,.55,10.75v42.19c0,3.06.34,5.61,1.03,7.66.68,2.05,1.71,3.82,3.08,5.29h-22.75c-.53-.74-1-1.42-1.42-2.05-.42-.63-.74-1.26-.95-1.9-.42-.95-.74-1.98-.95-3.08-.21-1.11-.32-2.45-.32-4.03-1.48,1.58-2.87,3.03-4.19,4.35s-2.61,2.45-3.87,3.4c-2.84,2.11-5.79,3.56-8.85,4.35-3.06.79-6.74,1.18-11.06,1.18-7.38,0-13.38-2.29-18.01-6.87-4.64-4.58-6.95-10.61-6.95-18.09s1.82-13.04,5.45-17.3,9.35-7.24,17.15-8.93c4-.84,8.48-1.63,13.43-2.37,4.95-.74,10.43-1.37,16.43-1.9,0-5.06-.71-8.87-2.13-11.46-1.42-2.58-5.08-3.87-10.98-3.87-4.95,0-8.64.87-11.06,2.61-2.42,1.74-4,4.72-4.74,8.93l-20.86-.16c.53-9.9,3.79-17.22,9.8-21.96ZM632.92,86.62c-2,.42-3.77.74-5.29.95-1.53.21-2.87.37-4.03.47-.74.21-1.42.37-2.05.47-.63.11-1.26.21-1.9.32-.53.11-1.03.21-1.5.32-.47.11-.98.21-1.5.32-5.27,1.05-8.96,2.45-11.06,4.19-2.11,1.74-3.16,4.24-3.16,7.51,0,2.84,1.08,5.14,3.24,6.87,2.16,1.74,4.98,2.61,8.45,2.61,7.79,0,12.88-2.32,15.25-6.95,2.37-4.63,3.56-10.27,3.56-16.91v-.16Z"/>
        <path d="M689.81,10.77v43.77c.74-.95,1.47-1.87,2.21-2.77.74-.89,1.42-1.71,2.05-2.45,3.16-3.48,6.42-5.95,9.8-7.43,3.37-1.47,7.22-2.21,11.54-2.21,10.01,0,17.99,3.9,23.94,11.69,5.95,7.8,8.93,18.17,8.93,31.13,0,13.8-3.11,24.86-9.32,33.19-6.22,8.32-14.49,12.48-24.81,12.48-5.48,0-10.06-1.24-13.75-3.71-3.69-2.47-7.22-6.72-10.59-12.72v14.22h-22.44V10.77h22.44ZM725.36,83.78c0-8-1.5-14.17-4.5-18.49-3-4.32-7.3-6.48-12.88-6.48s-9.9,2.16-12.96,6.48c-3.06,4.32-4.58,10.54-4.58,18.65s1.53,14.36,4.58,18.73c3.05,4.37,7.37,6.56,12.96,6.56s9.88-2.18,12.88-6.56c3-4.37,4.5-10.61,4.5-18.73v-.16Z"/>
        <path d="M786.36,10.77v115.2h-22.44V10.77h22.44Z"/>
        <path d="M830.13,105.27c2.74,3.58,6.69,5.37,11.85,5.37,2.42,0,4.48-.39,6.16-1.19,1.68-.79,3.26-2.19,4.74-4.19.42-.53.81-1.08,1.18-1.66.37-.58.76-1.24,1.19-1.97l22.91-.16c-3.58,9.27-8.32,16.04-14.22,20.31-5.9,4.27-13.43,6.4-22.6,6.4-12.33,0-21.97-3.87-28.92-11.61-6.95-7.74-10.43-18.46-10.43-32.16s3.45-25.1,10.35-32.95c6.9-7.85,16.51-11.77,28.84-11.77s22.15,3.81,28.84,11.42c6.69,7.61,10.03,18.61,10.03,33v2.28c0,.47-.05,1.08-.16,1.81h-54.68c.53,7.8,2.16,13.49,4.9,17.07ZM856.52,73.66c-.53-5.16-2.13-9.16-4.82-12.01s-6.3-4.27-10.82-4.27-8.14,1.41-10.82,4.23c-2.69,2.82-4.29,6.83-4.82,12.05h31.29Z"/>
        <rect x="239.13" y="10.77" width="22.44" height="18.23"/>
      </g>
      <g>
        <rect width="139.7" height="139.7" rx="28.98" ry="28.98"/>
        <path class="cls-3" d="M104.98,81.89l-16.18,7.95-3.96,1.94c-.7.34-1.54.06-1.88-.63l-6.92-14.06-8.56-17.4c-.34-.7-.05-1.54.63-1.88l20.15-9.91c.7-.34,1.53-.05,1.87.64l15.48,31.47c.34.7.05,1.54-.64,1.88Z"/>
        <path class="cls-2" d="M84.23,97.13c-2.52,0-4.8-1.41-5.91-3.68l-13.14-26.71c-.37-.01-.76.12-1.05.42l-15.87,15.87c-.55.54-.55,1.43,0,1.98l24.79,24.79c.55.55,1.44.55,1.98,0l14.54-14.54-2.43,1.19c-.9.45-1.91.68-2.92.68Z"/>
        <path class="cls-1" d="M117.04,35.08c-19.96-19.01-53.79-16.52-76.14,5.83-22.34,22.34-24.84,56.18-5.82,76.14.42.44,1.11.44,1.54.01l6.83-6.82c.4-.41.43-1.07.03-1.5-6.27-6.71-9.34-16.02-8.66-26.37.77-11.77,6.19-23.23,15.26-32.29,9.07-9.07,20.53-14.49,32.3-15.26,10.33-.69,19.66,2.39,26.37,8.66.42.39,1.08.37,1.49-.04l6.82-6.82c.43-.43.43-1.12-.01-1.55Z"/>
      </g>
    </g>
  </g>
</svg>