<?xml version="1.0" encoding="UTF-8"?>
<svg id="Layer_2" data-name="Layer 2" xmlns="http://www.w3.org/2000/svg" xmlns:xlink="http://www.w3.org/1999/xlink" viewBox="0 0 756.62 139.7">
  <defs>
    <style>
      .cls-1 {
        fill: #a2f69a;
        filter: url(#drop-shadow-2);
      }

      .cls-2, .cls-3 {
        fill: #fff;
      }

      .cls-2, .cls-3, .cls-4 {
        opacity: .95;
      }

      .cls-3 {
        filter: url(#drop-shadow-1);
      }
    </style>
    <filter id="drop-shadow-1" x="55.16" y="35.7" width="67" height="73" filterUnits="userSpaceOnUse">
      <feOffset dx="1.85" dy="1.85"/>
      <feGaussianBlur result="blur" stdDeviation="4.62"/>
      <feFlood flood-color="#294743" flood-opacity=".75"/>
      <feComposite in2="blur" operator="in"/>
      <feComposite in="SourceGraphic"/>
    </filter>
    <filter id="drop-shadow-2" x="15.71" y="22.24" width="113" height="113" filterUnits="userSpaceOnUse">
      <feOffset dx="1.85" dy="8.31"/>
      <feGaussianBlur result="blur-2" stdDeviation="2.77"/>
      <feFlood flood-color="#294743" flood-opacity=".75"/>
      <feComposite in2="blur-2" operator="in"/>
      <feComposite in="SourceGraphic"/>
    </filter>
  </defs>
  <g id="Layer_1-2" data-name="Layer 1">
    <g>
      <g class="cls-4">
        <path d="M179.1,49.99c0-8.59,1.21-15.15,3.64-19.67,2.42-4.52,8.4-6.78,17.92-6.78.88,0,1.87.02,2.97.07,1.1.05,2.22.15,3.37.33.44,0,.86.02,1.26.07.4.05.77.07,1.12.07v15.07c-1.24.27-2.36.44-3.37.53-1.01.09-1.87.18-2.58.27h-.4c-2.03.18-3.39.57-4.1,1.19-.71.62-1.06,2.2-1.06,4.76v4.1h41.25v13.35h-41.25v57.12h-18.77v-57.12h-10.05v-13.35h10.05Z"/>
        <path d="M239.13,49.99v70.47h-18.77V49.99h18.77Z"/>
        <path d="M275.88,49.99v10.45c.44-.53.88-1.1,1.32-1.72.44-.62.88-1.19,1.32-1.72,2.64-3.17,5.4-5.42,8.26-6.74,2.86-1.32,6.32-1.98,10.38-1.98,4.94,0,9.45,1.26,13.55,3.77,4.1,2.51,6.85,5.71,8.26,9.59.7,1.85,1.19,3.92,1.45,6.21.26,2.29.4,5.25.4,8.86v43.76h-18.77v-42.31c0-4.67-.93-8.15-2.78-10.45-1.85-2.29-4.72-3.44-8.59-3.44-5.91,0-9.83,2.03-11.77,6.08-1.94,4.06-2.95,8.51-3.04,13.35v36.76h-18.78V49.99h18.78Z"/>
        <path d="M340.8,54.22c5.02-3.97,12.47-5.95,22.34-5.95,7.23,0,13.18.93,17.85,2.78,4.67,1.85,7.98,4.67,9.92,8.46,0,.09.04.18.13.26.88,1.68,1.48,3.53,1.79,5.55.31,2.03.46,5.02.46,8.99v35.3c0,2.56.29,4.69.86,6.41.57,1.72,1.43,3.2,2.58,4.43h-19.04c-.44-.62-.84-1.19-1.19-1.72-.35-.53-.62-1.06-.79-1.59-.35-.79-.62-1.65-.79-2.58-.18-.93-.26-2.05-.26-3.37-1.24,1.32-2.4,2.53-3.5,3.64s-2.18,2.05-3.24,2.84c-2.38,1.76-4.85,2.98-7.4,3.64-2.56.66-5.64.99-9.25.99-6.17,0-11.2-1.92-15.07-5.75-3.88-3.83-5.82-8.88-5.82-15.14s1.52-10.91,4.56-14.48c3.04-3.57,7.82-6.06,14.35-7.47,3.35-.7,7.09-1.36,11.24-1.98,4.14-.62,8.73-1.14,13.75-1.59,0-4.23-.6-7.42-1.79-9.59-1.19-2.16-4.25-3.24-9.19-3.24-4.14,0-7.23.73-9.26,2.18-2.03,1.45-3.35,3.95-3.97,7.47l-17.45-.13c.44-8.28,3.17-14.41,8.2-18.38ZM374.65,87.54c-1.68.35-3.15.62-4.43.79-1.28.18-2.4.31-3.37.4-.62.18-1.19.31-1.72.4-.53.09-1.06.18-1.59.26-.44.09-.86.18-1.26.26-.4.09-.82.18-1.26.26-4.41.88-7.49,2.05-9.25,3.5-1.76,1.45-2.64,3.55-2.64,6.28,0,2.38.9,4.3,2.71,5.75,1.81,1.45,4.16,2.18,7.07,2.18,6.52,0,10.78-1.94,12.76-5.82,1.98-3.88,2.98-8.59,2.98-14.15v-.13Z"/>
        <path d="M426.21,24.07v96.39h-18.77V24.07h18.77Z"/>
        <path d="M468.25,49.99v-18.38h18.77v18.38h11.5v13.09h-11.5v37.81c0,3.09.51,5,1.52,5.75,1.01.75,3.5,1.12,7.47,1.12h2.51v14.01c-.71.09-1.41.15-2.12.2-.71.04-1.45.07-2.25.07-1.15.09-2.29.15-3.44.2-1.15.04-2.2.07-3.17.07-8.29,0-13.57-1.85-15.87-5.55-2.29-3.7-3.44-9.3-3.44-16.79v-36.89h-9.12v-13.09h9.12Z"/>
        <path d="M515.98,54.22c5.02-3.97,12.47-5.95,22.34-5.95,7.23,0,13.18.93,17.85,2.78,4.67,1.85,7.98,4.67,9.92,8.46,0,.09.04.18.13.26.88,1.68,1.48,3.53,1.79,5.55.31,2.03.46,5.02.46,8.99v35.3c0,2.56.29,4.69.86,6.41.57,1.72,1.43,3.2,2.58,4.43h-19.04c-.44-.62-.84-1.19-1.19-1.72-.35-.53-.62-1.06-.79-1.59-.35-.79-.62-1.65-.79-2.58-.18-.93-.26-2.05-.26-3.37-1.24,1.32-2.4,2.53-3.5,3.64s-2.18,2.05-3.24,2.84c-2.38,1.76-4.85,2.98-7.4,3.64-2.56.66-5.64.99-9.25.99-6.17,0-11.2-1.92-15.07-5.75-3.88-3.83-5.82-8.88-5.82-15.14s1.52-10.91,4.56-14.48,7.82-6.06,14.35-7.47c3.35-.7,7.09-1.36,11.24-1.98,4.14-.62,8.73-1.14,13.75-1.59,0-4.23-.6-7.42-1.79-9.59-1.19-2.16-4.25-3.24-9.19-3.24-4.14,0-7.23.73-9.26,2.18-2.03,1.45-3.35,3.95-3.97,7.47l-17.45-.13c.44-8.28,3.17-14.41,8.2-18.38ZM549.83,87.54c-1.68.35-3.15.62-4.43.79-1.28.18-2.4.31-3.37.4-.62.18-1.19.31-1.72.4-.53.09-1.06.18-1.59.26-.44.09-.86.18-1.26.26-.4.09-.82.18-1.26.26-4.41.88-7.49,2.05-9.25,3.5-1.76,1.45-2.64,3.55-2.64,6.28,0,2.38.9,4.3,2.71,5.75,1.81,1.45,4.16,2.18,7.07,2.18,6.52,0,10.78-1.94,12.76-5.82,1.98-3.88,2.98-8.59,2.98-14.15v-.13Z"/>
        <path d="M597.43,24.07v36.62c.62-.79,1.23-1.56,1.85-2.31.62-.75,1.19-1.43,1.72-2.05,2.64-2.91,5.38-4.98,8.2-6.21,2.82-1.23,6.04-1.85,9.65-1.85,8.37,0,15.05,3.26,20.03,9.78,4.98,6.52,7.47,15.2,7.47,26.05,0,11.55-2.6,20.8-7.8,27.77-5.2,6.96-12.12,10.44-20.76,10.44-4.58,0-8.42-1.04-11.5-3.11-3.09-2.07-6.04-5.62-8.86-10.64v11.9h-18.77V24.07h18.77ZM627.18,85.16c0-6.7-1.26-11.85-3.77-15.47-2.51-3.61-6.1-5.42-10.78-5.42s-8.29,1.81-10.84,5.42c-2.56,3.62-3.83,8.81-3.83,15.6s1.28,12.01,3.83,15.67c2.56,3.66,6.17,5.49,10.84,5.49s8.26-1.83,10.78-5.49c2.51-3.66,3.77-8.88,3.77-15.67v-.13Z"/>
        <path d="M678.21,24.07v96.39h-18.77V24.07h18.77Z"/>
        <path d="M714.83,103.14c2.29,3,5.6,4.5,9.92,4.5,2.03,0,3.75-.33,5.16-.99,1.41-.66,2.73-1.83,3.97-3.5.35-.44.68-.9.99-1.39.31-.48.64-1.03.99-1.65l19.17-.13c-3,7.76-6.96,13.42-11.9,16.99-4.94,3.57-11.24,5.35-18.91,5.35-10.31,0-18.38-3.24-24.2-9.72-5.82-6.48-8.73-15.45-8.73-26.91s2.89-21,8.66-27.57c5.77-6.57,13.82-9.85,24.13-9.85s18.53,3.19,24.13,9.55c5.6,6.37,8.4,15.57,8.4,27.61v1.91c0,.4-.05.9-.13,1.52h-45.75c.44,6.52,1.81,11.28,4.1,14.28ZM736.92,76.7c-.44-4.32-1.79-7.67-4.03-10.05s-5.27-3.57-9.06-3.57-6.81,1.18-9.06,3.54c-2.25,2.36-3.59,5.72-4.03,10.08h26.18Z"/>
        <rect x="220.35" y="24.07" width="18.77" height="15.26"/>
      </g>
      <g>
        <rect x="0" width="139.7" height="139.7" rx="28.98" ry="28.98"/>
        <path class="cls-3" d="M104.98,81.89l-16.18,7.95-3.96,1.94c-.7.34-1.54.06-1.88-.63l-6.92-14.06-8.56-17.4c-.34-.7-.05-1.54.63-1.88l20.15-9.91c.7-.34,1.53-.05,1.87.64l15.48,31.47c.34.7.05,1.54-.64,1.88Z"/>
        <path class="cls-2" d="M84.23,97.13c-2.52,0-4.8-1.41-5.91-3.68l-13.14-26.71c-.37-.01-.76.12-1.05.42l-15.87,15.87c-.55.54-.55,1.43,0,1.98l24.79,24.79c.55.55,1.44.55,1.98,0l14.54-14.54-2.43,1.19c-.9.45-1.91.68-2.92.68Z"/>
        <path class="cls-1" d="M117.04,35.08c-19.96-19.01-53.79-16.52-76.14,5.83-22.34,22.34-24.84,56.18-5.82,76.14.42.44,1.11.44,1.54.01l6.83-6.82c.4-.41.43-1.07.03-1.5-6.27-6.71-9.34-16.02-8.66-26.37.77-11.77,6.19-23.23,15.26-32.29,9.07-9.07,20.53-14.49,32.3-15.26,10.33-.69,19.66,2.39,26.37,8.66.42.39,1.08.37,1.49-.04l6.82-6.82c.43-.43.43-1.12-.01-1.55Z"/>
      </g>
    </g>
  </g>
</svg>