<?xml version="1.0" encoding="UTF-8"?>
<svg id="Layer_2" data-name="Layer 2" xmlns="http://www.w3.org/2000/svg" viewBox="0 0 166.59 233.13">
  <defs>
    <style>
      .cls-1 {
        fill: #af0f07;
      }

      .cls-2 {
        fill: #a43e32;
      }

      .cls-3 {
        fill: #fff;
      }

      .cls-4 {
        fill: #65a7dd;
      }
    </style>
  </defs>
  <g id="Objects">
    <g>
      <g>
        <rect class="cls-3" x=".12" y=".12" width="166.36" height="232.9" rx="5.94" ry="5.94"/>
        <path class="cls-4" d="M160.53,233.13H6.06c-3.34,0-6.06-2.72-6.06-6.06V6.06C0,2.72,2.72,0,6.06,0h154.48c3.34,0,6.06,2.72,6.06,6.06v221.02c0,3.34-2.72,6.06-6.06,6.06ZM6.06.23C2.84.23.23,2.84.23,6.06v221.02c0,3.21,2.61,5.82,5.82,5.82h154.48c3.21,0,5.82-2.61,5.82-5.82V6.06c0-3.21-2.61-5.82-5.82-5.82H6.06Z"/>
      </g>
      <path class="cls-3" d="M149.2,18.48c0,.31-.25.57-.57.57s-.57-.25-.57-.57.25-.57.57-.57.57.25.57.57Z"/>
      <path class="cls-3" d="M122.07,18.48c0,.31-.25.57-.57.57s-.57-.25-.57-.57.25-.57.57-.57.57.25.57.57Z"/>
      <path class="cls-3" d="M97.11,18.48c0,.31-.25.57-.57.57s-.57-.25-.57-.57.25-.57.57-.57.57.25.57.57Z"/>
      <path class="cls-3" d="M72.06,18.66c0,.31-.25.57-.57.57s-.57-.25-.57-.57.25-.57.57-.57.57.25.57.57Z"/>
      <path class="cls-3" d="M149.2,39.62c0,.31-.25.57-.57.57s-.57-.25-.57-.57.25-.57.57-.57.57.25.57.57Z"/>
      <path class="cls-3" d="M149.2,58.91c0,.31-.25.57-.57.57s-.57-.25-.57-.57.25-.57.57-.57.57.25.57.57Z"/>
      <path class="cls-3" d="M149.2,79.13c0,.31-.25.57-.57.57s-.57-.25-.57-.57.25-.57.57-.57.57.25.57.57Z"/>
      <path class="cls-3" d="M149.2,91.91c0,.31-.25.57-.57.57s-.57-.25-.57-.57.25-.57.57-.57.57.25.57.57Z"/>
      <path class="cls-3" d="M149.2,104.74c0,.31-.25.57-.57.57s-.57-.25-.57-.57.25-.57.57-.57.57.25.57.57Z"/>
      <path class="cls-3" d="M18.9,19.05c0,.31-.25.57-.57.57s-.57-.25-.57-.57.25-.57.57-.57.57.25.57.57Z"/>
      <path class="cls-3" d="M46.34,18.66c0,.31-.25.57-.57.57s-.57-.25-.57-.57.25-.57.57-.57.57.25.57.57Z"/>
      <path class="cls-3" d="M18.9,39.17c0,.31-.25.57-.57.57s-.57-.25-.57-.57.25-.57.57-.57.57.25.57.57Z"/>
      <path class="cls-3" d="M18.9,59.05c0,.31-.25.57-.57.57s-.57-.25-.57-.57.25-.57.57-.57.57.25.57.57Z"/>
      <path class="cls-3" d="M18.9,78.99c0,.31-.25.57-.57.57s-.57-.25-.57-.57.25-.57.57-.57.57.25.57.57Z"/>
      <path class="cls-3" d="M18.9,91.91c0,.31-.25.57-.57.57s-.57-.25-.57-.57.25-.57.57-.57.57.25.57.57Z"/>
      <path class="cls-3" d="M18.9,105.31c0,.31-.25.57-.57.57s-.57-.25-.57-.57.25-.57.57-.57.57.25.57.57Z"/>
      <path class="cls-3" d="M18.9,118.24c0,.31-.25.57-.57.57s-.57-.25-.57-.57.25-.57.57-.57.57.25.57.57Z"/>
      <path class="cls-3" d="M18.9,131.17c0,.31-.25.57-.57.57s-.57-.25-.57-.57.25-.57.57-.57.57.25.57.57Z"/>
      <path class="cls-3" d="M18.9,144.57c0,.31-.25.57-.57.57s-.57-.25-.57-.57.25-.57.57-.57.57.25.57.57Z"/>
      <path class="cls-3" d="M18.9,158c0,.31-.25.57-.57.57s-.57-.25-.57-.57.25-.57.57-.57.57.25.57.57Z"/>
      <path class="cls-3" d="M18.9,170c0,.31-.25.57-.57.57s-.57-.25-.57-.57.25-.57.57-.57.57.25.57.57Z"/>
      <path class="cls-3" d="M18.9,183.39c0,.31-.25.57-.57.57s-.57-.25-.57-.57.25-.57.57-.57.57.25.57.57Z"/>
      <path class="cls-3" d="M18.9,196.44c0,.31-.25.57-.57.57s-.57-.25-.57-.57.25-.57.57-.57.57.25.57.57Z"/>
      <path class="cls-3" d="M19.13,215.63c0,.31-.25.57-.57.57s-.57-.25-.57-.57.25-.57.57-.57.57.25.57.57Z"/>
      <path class="cls-3" d="M39.66,216.2c0,.31-.25.57-.57.57s-.57-.25-.57-.57.25-.57.57-.57.57.25.57.57Z"/>
      <path class="cls-3" d="M66.11,216.2c0,.31-.25.57-.57.57s-.57-.25-.57-.57.25-.57.57-.57.57.25.57.57Z"/>
      <path class="cls-3" d="M92.51,216.2c0,.31-.25.57-.57.57s-.57-.25-.57-.57.25-.57.57-.57.57.25.57.57Z"/>
      <path class="cls-3" d="M118.23,216.2c0,.31-.25.57-.57.57s-.57-.25-.57-.57.25-.57.57-.57.57.25.57.57Z"/>
      <path class="cls-3" d="M149.2,117.93c0,.31-.25.57-.57.57s-.57-.25-.57-.57.25-.57.57-.57.57.25.57.57Z"/>
      <path class="cls-3" d="M149.2,130.26c0,.31-.25.57-.57.57s-.57-.25-.57-.57.25-.57.57-.57.57.25.57.57Z"/>
      <path class="cls-3" d="M149.2,143.55c0,.31-.25.57-.57.57s-.57-.25-.57-.57.25-.57.57-.57.57.25.57.57Z"/>
      <path class="cls-3" d="M149.2,156.65c0,.31-.25.57-.57.57s-.57-.25-.57-.57.25-.57.57-.57.57.25.57.57Z"/>
      <path class="cls-3" d="M149.2,169.41c0,.31-.25.57-.57.57s-.57-.25-.57-.57.25-.57.57-.57.57.25.57.57Z"/>
      <path class="cls-3" d="M149.2,181.98c0,.31-.25.57-.57.57s-.57-.25-.57-.57.25-.57.57-.57.57.25.57.57Z"/>
      <path class="cls-3" d="M149.2,194.82c0,.31-.25.57-.57.57s-.57-.25-.57-.57.25-.57.57-.57.57.25.57.57Z"/>
      <path class="cls-3" d="M149.2,214.39c0,.31-.25.57-.57.57s-.57-.25-.57-.57.25-.57.57-.57.57.25.57.57Z"/>
      <g>
        <path class="cls-1" d="M95.12,90.58c-10.61-.26-13.05,7.84-13.61,11.74-.56-3.9-3-12-13.61-11.74-13.95.34-15.79,15.96-10.92,23.86,4.87,7.9,7.39,10.42,12.27,15.46,4.59,4.75,10.07,10.09,12.1,13.36,0,0,.11.38.17.28.06.1.17-.28.17-.28,2.03-3.27,7.51-8.62,12.1-13.36,4.87-5.04,7.39-7.56,12.27-15.46,4.87-7.9,3.02-23.52-10.92-23.86Z"/>
        <path class="cls-1" d="M20.32,29.13c-1.9-.05-2.34,1.41-2.44,2.11-.1-.7-.54-2.15-2.44-2.11-2.5.06-2.83,2.86-1.96,4.28.87,1.42,1.33,1.87,2.2,2.77.82.85,1.81,1.81,2.17,2.4,0,0,.02.07.03.05.01.02.03-.05.03-.05.36-.59,1.35-1.54,2.17-2.4.87-.9,1.33-1.36,2.2-2.77.87-1.42.54-4.22-1.96-4.28Z"/>
        <path class="cls-2" d="M11.83,24.2h.72c.76,0,1.32-.47,1.67-1.42l4.17-11.78h.48l4.21,12.34c.13.32.28.55.47.67.18.12.41.18.7.18h1.09v.62h-6.02v-.62h1.28c.19,0,.36-.05.49-.15.13-.1.19-.21.19-.34,0-.17-.03-.31-.08-.43l-.91-2.58h-4.54l-.47,1.3c-.18.52-.27.89-.27,1.13,0,.29.07.53.21.75.14.21.39.32.74.32h1.18v.62h-5.32v-.62ZM15.97,20.08h4.11l-2.02-5.92-2.1,5.92Z"/>
        <path class="cls-1" d="M140.3,205.09h5.32v.62h-1.18c-.35,0-.6.11-.74.32-.14.21-.21.46-.21.75,0,.23.09.61.27,1.12l.47,1.3h4.54l.91-2.58c.05-.12.08-.26.08-.43,0-.13-.06-.24-.19-.34-.13-.1-.29-.15-.49-.15h-1.28v-.62h6.02v.62h-1.09c-.29,0-.52.06-.7.18-.18.12-.34.35-.47.67l-4.21,12.34h-.48l-4.17-11.78c-.35-.94-.91-1.42-1.67-1.42h-.72v-.62ZM146.53,215.74l2.02-5.92h-4.11l2.1,5.92Z"/>
        <path class="cls-1" d="M150.63,200.36c-1.9.05-2.34-1.41-2.44-2.11-.1.7-.54,2.15-2.44,2.11-2.5-.06-2.83-2.86-1.96-4.28.87-1.42,1.33-1.87,2.2-2.77.82-.85,1.81-1.81,2.17-2.4,0,0,.02-.07.03-.05.01-.02.03.05.03.05.36.59,1.35,1.54,2.17,2.4.87.9,1.33,1.36,2.2,2.77.87,1.42.54,4.22-1.96,4.28Z"/>
      </g>
    </g>
  </g>
</svg>