<?xml version="1.0" encoding="UTF-8"?>
<svg id="Layer_2" data-name="Layer 2" xmlns="http://www.w3.org/2000/svg" viewBox="0 0 166.48 233.07">
  <defs>
    <style>
      .cls-1 {
        fill: #af0f07;
      }

      .cls-2 {
        fill: #a43e32;
      }

      .cls-3 {
        fill: #fff;
      }

      .cls-4 {
        fill: #65a7dd;
      }
    </style>
  </defs>
  <g id="Objects">
    <g>
      <g>
        <path class="cls-3" d="M6.05.11h154.38c3.28,0,5.94,2.66,5.94,5.94v220.96c0,3.28-2.66,5.94-5.94,5.94H6.05c-3.28,0-5.94-2.66-5.94-5.94V6.05C.12,2.78,2.78.11,6.05.11Z"/>
        <path class="cls-4" d="M160.43,233.07H6.05c-3.34,0-6.05-2.71-6.05-6.05V6.05C0,2.72,2.71,0,6.05,0h154.38c3.34,0,6.05,2.72,6.05,6.05v220.96c0,3.34-2.71,6.05-6.05,6.05ZM6.05.23C2.84.23.23,2.84.23,6.05v220.96c0,3.21,2.61,5.82,5.82,5.82h154.38c3.21,0,5.82-2.61,5.82-5.82V6.05c0-3.21-2.61-5.82-5.82-5.82H6.05Z"/>
      </g>
      <circle class="cls-3" cx="148.53" cy="18.48" r=".57"/>
      <circle class="cls-3" cx="121.42" cy="18.48" r=".57"/>
      <circle class="cls-3" cx="96.48" cy="18.48" r=".57"/>
      <path class="cls-3" d="M72.02,18.66c0,.31-.25.57-.57.57s-.57-.25-.57-.57.25-.57.57-.57.57.25.57.57Z"/>
      <circle class="cls-3" cx="148.53" cy="39.61" r=".57"/>
      <circle class="cls-3" cx="148.53" cy="58.9" r=".57"/>
      <circle class="cls-3" cx="148.53" cy="79.11" r=".57"/>
      <circle class="cls-3" cx="148.53" cy="91.89" r=".57"/>
      <circle class="cls-3" cx="148.53" cy="104.72" r=".57"/>
      <circle class="cls-3" cx="18.32" cy="19.04" r=".57"/>
      <circle class="cls-3" cx="45.74" cy="18.66" r=".57"/>
      <circle class="cls-3" cx="18.32" cy="39.16" r=".57"/>
      <circle class="cls-3" cx="18.32" cy="59.03" r=".57"/>
      <circle class="cls-3" cx="18.32" cy="78.97" r=".57"/>
      <circle class="cls-3" cx="18.32" cy="91.89" r=".57"/>
      <circle class="cls-3" cx="18.32" cy="105.28" r=".57"/>
      <circle class="cls-3" cx="18.32" cy="118.21" r=".57"/>
      <circle class="cls-3" cx="18.32" cy="131.13" r=".57"/>
      <circle class="cls-3" cx="18.32" cy="144.53" r=".57"/>
      <circle class="cls-3" cx="18.32" cy="157.95" r=".57"/>
      <circle class="cls-3" cx="18.32" cy="169.95" r=".57"/>
      <circle class="cls-3" cx="18.32" cy="183.35" r=".57"/>
      <circle class="cls-3" cx="18.32" cy="196.39" r=".57"/>
      <circle class="cls-3" cx="18.55" cy="215.57" r=".57"/>
      <path class="cls-3" d="M39.63,216.14c0,.31-.25.57-.57.57s-.57-.25-.57-.57.25-.57.57-.57.57.25.57.57Z"/>
      <circle class="cls-3" cx="65.5" cy="216.14" r=".57"/>
      <circle class="cls-3" cx="91.89" cy="216.14" r=".57"/>
      <path class="cls-3" d="M118.16,216.14c0,.31-.25.57-.57.57s-.57-.25-.57-.57.25-.57.57-.57.57.25.57.57Z"/>
      <circle class="cls-3" cx="148.53" cy="117.9" r=".57"/>
      <circle class="cls-3" cx="148.53" cy="130.22" r=".57"/>
      <circle class="cls-3" cx="148.53" cy="143.51" r=".57"/>
      <circle class="cls-3" cx="148.53" cy="156.61" r=".57"/>
      <circle class="cls-3" cx="148.53" cy="169.36" r=".57"/>
      <circle class="cls-3" cx="148.53" cy="181.94" r=".57"/>
      <circle class="cls-3" cx="148.53" cy="194.77" r=".57"/>
      <path class="cls-3" d="M149.1,214.34c0,.31-.25.57-.57.57s-.57-.25-.57-.57.25-.57.57-.57.57.25.57.57Z"/>
      <g>
        <polygon class="cls-1" points="148.29 193.01 143.57 198.22 147.77 203.95 152.62 198.69 148.29 193.01"/>
        <polygon class="cls-1" points="15.39 30.07 10.66 35.28 14.87 41.01 19.71 35.75 15.39 30.07"/>
        <path class="cls-2" d="M12.69,24.93c-.19-.23-.33-.49-.42-.78s-.13-.54-.13-.76c0-.45.16-.82.49-1.11.23-.19.5-.29.8-.29s.53.12.7.35c.06.09.11.17.13.25.02.08.03.18.03.31,0,.19-.08.39-.25.58-.12.13-.24.24-.37.33-.12.08-.2.16-.24.24-.05.08-.07.18-.07.3,0,.23.13.44.4.61.27.17.67.26,1.21.26.47,0,.91-.14,1.33-.41.42-.27.77-.72,1.06-1.36.22-.48.39-1.08.51-1.81.12-.73.17-1.34.17-1.81v-.87l-.14-.06c-.23.49-.59.9-1.08,1.21-.48.32-.95.48-1.41.48-.87,0-1.6-.21-2.19-.64-.5-.36-.89-.85-1.16-1.46s-.41-1.27-.41-1.97.16-1.4.47-2.1.77-1.29,1.37-1.76c.6-.47,1.31-.7,2.12-.7s1.58.26,2.22.78c.64.52,1.13,1.26,1.48,2.22.35.96.52,2.1.52,3.41,0,1.06-.14,2.1-.41,3.12-.27,1.02-.67,1.87-1.18,2.54-.94,1.22-2.05,1.82-3.32,1.82-.92,0-1.66-.31-2.23-.93ZM16.59,19.44c.36-.3.65-.72.86-1.27.21-.55.32-1.18.32-1.89,0-1.07-.17-1.96-.51-2.65-.34-.69-.89-1.04-1.67-1.04s-1.36.38-1.72,1.13c-.36.75-.53,1.6-.53,2.56,0,1.03.16,1.9.47,2.58.31.69.83,1.03,1.55,1.03.45,0,.86-.15,1.22-.45Z"/>
        <path class="cls-1" d="M150.98,208.38c.19.23.33.49.42.78.08.28.13.54.13.76,0,.45-.16.82-.49,1.11-.23.19-.5.29-.8.29s-.53-.12-.7-.35c-.06-.09-.11-.18-.13-.25-.02-.08-.03-.18-.03-.31,0-.19.08-.39.25-.58.12-.13.24-.24.37-.33.12-.08.2-.16.24-.24.05-.08.07-.18.07-.3,0-.23-.13-.44-.4-.61-.27-.18-.67-.26-1.21-.26-.47,0-.91.14-1.33.41-.42.27-.77.72-1.06,1.36-.22.48-.39,1.08-.51,1.81-.12.73-.17,1.34-.17,1.81v.87l.14.06c.23-.49.59-.9,1.08-1.21.48-.32.95-.48,1.41-.48.87,0,1.6.21,2.19.64.5.36.89.85,1.16,1.47.27.61.41,1.27.41,1.97s-.16,1.4-.47,2.11c-.31.7-.77,1.29-1.37,1.76-.6.47-1.31.7-2.12.7s-1.58-.26-2.22-.78c-.64-.52-1.13-1.26-1.48-2.22-.35-.96-.52-2.1-.52-3.41,0-1.06.14-2.1.41-3.12.27-1.02.67-1.87,1.18-2.54.94-1.22,2.05-1.82,3.32-1.82.92,0,1.66.31,2.23.93ZM147.08,213.87c-.36.3-.65.72-.86,1.27-.21.55-.32,1.18-.32,1.89,0,1.07.17,1.96.51,2.65.34.69.89,1.04,1.67,1.04s1.36-.38,1.72-1.13c.36-.75.53-1.6.53-2.56,0-1.03-.16-1.89-.47-2.58-.31-.69-.83-1.03-1.55-1.03-.45,0-.86.15-1.22.45Z"/>
        <polygon class="cls-1" points="48.63 24.91 35.34 41.06 48.63 57.47 62.27 41.19 48.63 24.91"/>
        <polygon class="cls-1" points="83.39 101.84 70.1 117.99 83.39 134.4 97.03 118.12 83.39 101.84"/>
        <polygon class="cls-1" points="48.63 74.77 35.34 90.92 48.63 107.32 62.27 91.05 48.63 74.77"/>
        <polygon class="cls-1" points="48.63 124.63 35.34 140.77 48.63 157.18 62.27 140.9 48.63 124.63"/>
        <polygon class="cls-1" points="48.63 174.48 35.34 190.63 48.63 207.04 62.27 190.76 48.63 174.48"/>
        <polygon class="cls-1" points="117.91 24.91 104.61 41.06 117.91 57.47 131.54 41.19 117.91 24.91"/>
        <polygon class="cls-1" points="117.91 74.77 104.61 90.92 117.91 107.32 131.54 91.05 117.91 74.77"/>
        <polygon class="cls-1" points="117.91 124.63 104.61 140.77 117.91 157.18 131.54 140.9 117.91 124.63"/>
        <polygon class="cls-1" points="117.91 174.48 104.61 190.63 117.91 207.04 131.54 190.76 117.91 174.48"/>
      </g>
    </g>
  </g>
</svg>